<svg width="535" height="448" viewBox="0 0 535 448" fill="none" xmlns="http://www.w3.org/2000/svg">
<path d="M417.389 183.996L407.517 182.403L406.193 190.609L414.019 193.411L417.389 183.996ZM419.281 162.93V152.93H409.475L409.283 162.734L419.281 162.93ZM460.474 210.857L453.135 217.649L457.999 222.905L464.542 219.992L460.474 210.857ZM484.71 213.857L475.617 218.018L475.617 218.018L484.71 213.857ZM484.388 223.132L493.648 226.908L493.652 226.898L484.388 223.132ZM484.368 223.178L493.5 227.254L493.507 227.239L493.513 227.225L484.368 223.178ZM484.352 223.214L493.46 227.342L493.472 227.316L493.484 227.289L484.352 223.214ZM484.323 223.278L493.424 227.423L493.427 227.415L493.431 227.407L484.323 223.278ZM484.314 223.298L475.213 219.154L475.211 219.16L484.314 223.298ZM484.304 223.32L493.399 227.477L493.403 227.468L493.407 227.459L484.304 223.32ZM484.299 223.331L493.328 227.63L493.362 227.559L493.394 227.488L484.299 223.331ZM484.299 223.332L475.27 219.032L475.234 219.108L475.2 219.183L484.299 223.332ZM484.036 223.923L474.844 219.984L469.743 231.888L482.55 233.812L484.036 223.923ZM485.719 225.627L495.624 224.255L495.624 224.255L485.719 225.627ZM485.822 226.659L475.838 227.234L476.333 235.829L484.907 236.617L485.822 226.659ZM509.712 234.147L502.56 241.137L502.561 241.137L509.712 234.147ZM510.155 234.599L503.011 241.597L503.012 241.598L510.155 234.599ZM510.516 234.968L517.662 227.973L517.659 227.969L510.516 234.968ZM510.543 234.995L503.397 241.991L503.401 241.995L510.543 234.995ZM524.264 263.384L514.266 263.611L514.295 264.856L514.627 266.056L524.264 263.384ZM522.071 279.058L512.88 275.119L512.88 275.119L522.071 279.058ZM515.144 283.921L513.131 274.126L513.13 274.126L515.144 283.921ZM513.618 284.023V294.023H513.872L514.126 294.01L513.618 284.023ZM513.617 284.023V274.023H513.363L513.109 274.036L513.617 284.023ZM510.867 284.201L509.892 274.249L501.92 275.029L500.942 282.98L510.867 284.201ZM509.762 285.75L505.356 276.774L498.574 280.103L499.923 287.536L509.762 285.75ZM509.864 286.26L519.653 284.217L519.653 284.216L509.864 286.26ZM509.923 286.545L500.113 288.489L500.114 288.492L509.923 286.545ZM509.983 286.889L500.087 288.327L500.087 288.328L509.983 286.889ZM510.125 292.849L500.34 290.789V290.789L510.125 292.849ZM498.192 303.531L497.401 293.562H497.401L498.192 303.531ZM493.811 302.693L498.617 293.924L485.762 286.878L483.892 301.417L493.811 302.693ZM493.806 302.73L503.724 304.009L503.724 304.005L493.806 302.73ZM491.566 304.457L490.286 314.375L490.287 314.375L491.566 304.457ZM491.373 304.423L493.61 294.676L483.482 292.352L481.547 302.561L491.373 304.423ZM487.175 311.091L480.842 303.351L480.842 303.351L487.175 311.091ZM476.364 314.909L475.872 304.921L475.872 304.921L476.364 314.909ZM473.091 314.959L473.402 304.964L443.848 304.045L466.777 322.714L473.091 314.959ZM478.107 320.4L469.766 325.916L469.766 325.916L478.107 320.4ZM486.313 347.205L476.355 346.294V346.294L486.313 347.205ZM471.119 369.636L465.457 361.394L471.119 369.636ZM446.791 375.837L448.282 365.948V365.948L446.791 375.837ZM438.866 373.794L441.837 364.246L441.566 364.162L441.291 364.093L438.866 373.794ZM438.865 373.794L435.893 383.342L436.164 383.427L436.439 383.496L438.865 373.794ZM437.001 373.22L434.113 382.794L434.113 382.794L437.001 373.22ZM428.037 368.97L434.869 361.668L434.868 361.668L428.037 368.97ZM419.711 355.141L429.439 352.823L429.439 352.823L419.711 355.141ZM419.438 353.249L409.504 354.395L409.513 354.478L409.524 354.56L419.438 353.249ZM419.438 353.247L429.372 352.1L429.356 351.966L429.337 351.832L419.438 353.247ZM419.438 353.246L429.337 351.832L429.264 351.321L429.139 350.821L419.438 353.246ZM419.438 353.246L409.524 354.556L409.598 355.119L409.736 355.671L419.438 353.246ZM417.259 343.687L417.863 353.668H417.863L417.259 343.687ZM415.177 344.628L409.876 336.149L409.876 336.149L415.177 344.628ZM413.976 345.297L410.286 336.002L410.285 336.003L413.976 345.297ZM409.784 346.294L408.188 336.422L408.185 336.422L409.784 346.294ZM409.491 346.341L407.892 336.47L407.878 336.472L409.491 346.341ZM409.353 346.364L407.74 336.494L407.735 336.495L409.353 346.364ZM407.202 346.753L405.339 336.928L404.678 337.053L404.04 337.266L407.202 346.753ZM407.202 346.753L409.163 356.559L409.773 356.437L410.364 356.24L407.202 346.753ZM407.201 346.753L409.064 356.578L409.113 356.569L409.162 356.559L407.201 346.753ZM399.169 347.334L400.707 337.453L400.707 337.453L399.169 347.334ZM392.443 343.075L399.809 336.311L399.809 336.311L392.443 343.075ZM386.81 335.479L395.496 330.523L391.506 323.529L383.822 325.935L386.81 335.479ZM309.566 304.416L318.368 299.669L314.581 292.646L306.892 294.78L309.566 304.416ZM275.856 309.725L275.432 299.734L269.492 299.987L266.877 305.325L275.856 309.725ZM265.098 339.901L255.414 337.407L253.619 344.374L259.655 348.29L265.098 339.901ZM267.562 341.677L273.821 333.878L273.821 333.878L267.562 341.677ZM273.196 363.334L280.267 370.405L280.267 370.405L273.196 363.334ZM265.941 367.708L266.453 377.695L266.467 377.694L266.481 377.693L265.941 367.708ZM265.839 367.713L266.333 377.701L266.342 377.701L266.351 377.7L265.839 367.713ZM263.557 370.429L255.547 364.443L255.547 364.443L263.557 370.429ZM263.133 371.02L254.653 365.72L263.133 371.02ZM259.461 381.066L249.568 379.603V379.603L259.461 381.066ZM259.017 396.633H269.017V396.491L269.013 396.348L259.017 396.633ZM259.017 396.639H249.017V396.782L249.021 396.925L259.017 396.639ZM259.191 405.423L249.196 405.741L249.196 405.749L249.197 405.756L259.191 405.423ZM259.191 405.424L269.186 405.106L269.186 405.098L269.186 405.091L259.191 405.424ZM258.777 412.893L268.495 415.249V415.249L258.777 412.893ZM255.78 420.106L246.815 415.674L246.814 415.678L255.78 420.106ZM255.572 420.526L246.606 416.098L246.603 416.103L255.572 420.526ZM241.494 435.108L245.933 444.069H245.933L241.494 435.108ZM215.553 436.386L218.414 426.804H218.414L215.553 436.386ZM192.583 413.307L202.186 410.519L202.186 410.519L192.583 413.307ZM192.265 411.972L202.01 409.726L201.989 409.636L201.967 409.547L192.265 411.972ZM192.265 411.972L182.521 414.218L182.542 414.308L182.564 414.397L192.265 411.972ZM190.296 405.188L184.694 396.905L184.693 396.906L190.296 405.188ZM189.149 405.984L194.894 414.169L194.894 414.168L189.149 405.984ZM182.303 408.825L182.829 418.811L182.303 408.825ZM151.466 380.796L161.355 379.309L151.466 380.796ZM165.237 340.633L171.908 348.083L171.908 348.083L165.237 340.633ZM192.313 332.784L193.308 322.834H193.308L192.313 332.784ZM212.907 342.361L206.754 350.244L206.754 350.244L212.907 342.361ZM219.1 349.526L227.764 344.533L227.762 344.529L219.1 349.526ZM219.122 349.564L210.457 354.556L210.458 354.559L219.122 349.564ZM220.54 349.922L212.842 343.539L212.842 343.539L220.54 349.922ZM225.961 343.856L233.172 350.784L225.961 343.856ZM225.677 341.526L233.964 335.928L233.964 335.928L225.677 341.526ZM224.788 339.409L214.789 339.55V339.55L224.788 339.409ZM227.921 332.694L223.704 323.627L223.704 323.627L227.921 332.694ZM245.523 332.097L242.984 341.77L252.603 344.293L255.181 334.69L245.523 332.097ZM253.282 309.009L262.53 312.815L267.606 300.481L254.344 299.065L253.282 309.009ZM123.498 194.691L133.227 192.382L132.067 187.495L127.455 185.508L123.498 194.691ZM87.2485 173.133L93.4921 165.321L85.9637 159.304L79.6727 166.605L87.2485 173.133ZM85.4649 175.05L78.3939 167.979L78.3939 167.979L85.4649 175.05ZM67.326 178.007L73.0752 169.825L69.7846 167.513L65.8094 168.123L67.326 178.007ZM62.5628 178.434L62.9971 188.424L62.9972 188.424L62.5628 178.434ZM60.4974 176.729L70.3912 175.275L68.8184 164.567L58.2674 166.98L60.4974 176.729ZM57.0058 177.781L53.809 168.306L53.8089 168.306L57.0058 177.781ZM52.673 178.999L51.0438 169.133H51.0437L52.673 178.999ZM29.9692 172.59L35.1379 164.029H35.1378L29.9692 172.59ZM18.6624 127.905L23.9623 136.385L23.9627 136.384L18.6624 127.905ZM18.7188 127.868L24.2442 136.203L31.7163 131.25L27.6056 123.283L18.7188 127.868ZM18.6344 127.682L9.33028 131.347L9.33034 131.347L18.6344 127.682ZM19.1375 125.48L25.9259 132.823L30.8386 128.281L28.515 122.007L19.1375 125.48ZM18.9513 124.999L9.65057 128.672L9.65059 128.672L18.9513 124.999ZM18.4593 123.526L28.225 121.375L28.225 121.375L18.4593 123.526ZM18.4593 112.468L9.25347 108.562H9.25347L18.4593 112.468ZM22.0099 106.69L28.9019 113.935L33.9968 109.089L31.16 102.655L22.0099 106.69ZM21.8932 106.341L12.1624 108.646L12.1624 108.646L21.8932 106.341ZM23.3784 103.934L21.0738 94.2036L21.0737 94.2036L23.3784 103.934ZM26.8412 103.18L28.7606 112.994L36.0008 111.578L36.7846 104.243L26.8412 103.18ZM26.8773 102.696L36.866 103.171L36.866 103.171L26.8773 102.696ZM26.9308 98.7169L16.9309 98.762L26.9308 98.7169ZM31.74 84.844L38.1791 92.4951L38.1791 92.4951L31.74 84.844ZM45.9835 79.7179L45.2448 89.6906H45.2448L45.9835 79.7179ZM57.6148 82.9735L52.9295 91.808L52.9297 91.8081L57.6148 82.9735ZM58.2656 83.3241L53.4929 92.1117L53.4998 92.1154L58.2656 83.3241ZM58.2699 83.3265L63.0585 74.5475L63.0471 74.5413L63.0358 74.5352L58.2699 83.3265ZM58.2712 83.3272L63.8182 75.0067L63.4491 74.7606L63.0597 74.5482L58.2712 83.3272ZM58.2713 83.3272L52.7243 91.6477L53.1008 91.8987L53.4985 92.1147L58.2713 83.3272ZM59.8947 84.1617L55.7324 93.2543L64.9576 97.4773L69.0466 88.1919L59.8947 84.1617ZM60.0015 83.9531L51.3773 78.8911L51.3772 78.8913L60.0015 83.9531ZM62.7387 83.2407L57.6767 91.8648L57.6767 91.8649L62.7387 83.2407ZM63.5653 83.7393L58.3266 92.2573L67.3669 97.8173L72.3796 88.4625L63.5653 83.7393ZM64.8487 78.8847L54.9824 77.2552L54.9824 77.2553L64.8487 78.8847ZM65.0857 77.6221L74.7242 80.2864L65.0857 77.6221ZM93.1156 55.144L94.2311 65.0816L94.2311 65.0815L93.1156 55.144ZM113.721 63.088L121.979 57.4484L121.979 57.4484L113.721 63.088ZM114.691 81.2556L122.195 87.866L122.195 87.866L114.691 81.2556ZM111.181 83.9049L105.968 75.3714L105.968 75.3714L111.181 83.9049ZM109.184 85.2051L115.128 93.2469L115.128 93.2468L109.184 85.2051ZM101.827 91.9305L94.4861 85.1401L94.486 85.1401L101.827 91.9305ZM94.8308 106.465L104.8 107.244L104.8 107.243L94.8308 106.465ZM94.8303 114.327H104.83V114.129L104.822 113.932L94.8303 114.327ZM94.8303 114.328H84.8303V114.526L84.8381 114.724L94.8303 114.328ZM93.2831 131.245L102.862 134.118L102.862 134.118L93.2831 131.245ZM92.9787 132.461L83.1726 130.502L81.093 140.909L91.6056 142.367L92.9787 132.461ZM93.6748 132.695L98.5312 123.953L98.5312 123.953L93.6748 132.695ZM94.4519 135.414L85.7103 130.558L85.7103 130.558L94.4519 135.414ZM93.0342 137.392L85.8292 130.457L82.1278 134.303L83.263 139.519L93.0342 137.392ZM94.0861 140.565L103.262 136.589L103.262 136.589L94.0861 140.565ZM96.3459 151.675L86.355 151.248L86.1083 157.02L90.9848 160.117L96.3459 151.675ZM119.522 164.684L115.143 173.675L130.032 180.925L129.517 164.373L119.522 164.684ZM119.477 162.93L129.475 162.734L129.283 152.93H119.477V162.93ZM119.448 162.93H109.448V172.93H119.448V162.93ZM119.448 156.933V146.933H109.448V156.933H119.448ZM119.477 156.933V166.933H129.283L129.475 157.129L119.477 156.933ZM266.38 10.0294L266.577 20.0275L276.38 19.8351V10.0294H266.38ZM266.38 10V0H256.38V10H266.38ZM272.378 10H282.378V0H272.378V10ZM272.378 10.0294H262.378V19.8351L272.182 20.0275L272.378 10.0294ZM419.281 156.933L409.283 157.129L409.475 166.933H419.281V156.933ZM419.31 156.933H429.31V146.933H419.31V156.933ZM419.31 162.93V172.93H429.31V162.93H419.31ZM409.588 213.157L414.503 204.449L404.371 198.729L400.24 209.606L409.588 213.157ZM330.738 296.773L326.642 287.65L317.16 291.908L321.781 301.219L330.738 296.773ZM431.997 230.413L437.025 239.057L447.843 232.763L439.317 223.601L431.997 230.413ZM430.099 231.79L423.835 223.995L423.835 223.995L430.099 231.79ZM429.662 232.137L435.775 240.052L435.775 240.052L429.662 232.137ZM425.457 239.878L415.512 238.831L425.457 239.878ZM431.773 251.896L437.191 260.301L449.589 252.309L437.575 243.751L431.773 251.896ZM433.273 255.594L440.026 262.969L456.648 247.749L434.21 245.638L433.273 255.594ZM428.346 261.603L419.803 256.406L419.803 256.406L428.346 261.603ZM423.944 274.516L426.317 284.231L433.19 282.552L433.894 275.511L423.944 274.516ZM412.072 281.014L419.006 288.22L419.006 288.22L412.072 281.014ZM407.312 298.167L403.172 307.27L418.699 314.333L417.277 297.333L407.312 298.167ZM407.019 298.036L411.054 288.886L411.054 288.886L407.019 298.036ZM384.18 303.876L393.088 308.42L384.18 303.876ZM381.612 319.062L384.411 328.662L392.262 326.372L391.577 318.224L381.612 319.062ZM427.262 185.588C428.445 178.251 429.129 170.752 429.279 163.126L409.283 162.734C409.152 169.42 408.552 175.987 407.517 182.403L427.262 185.588ZM467.813 204.064C454.526 189.708 437.047 180.411 420.76 174.581L414.019 193.411C428.479 198.586 442.761 206.44 453.135 217.649L467.813 204.064ZM473.242 197.909C467.21 197.909 461.428 199.486 456.407 201.721L464.542 219.992C467.644 218.611 470.639 217.909 473.242 217.909V197.909ZM493.804 209.695C489.179 199.59 479.242 197.909 473.242 197.909V217.909C473.976 217.909 474.569 217.96 475.031 218.039C475.493 218.119 475.744 218.212 475.842 218.256C475.925 218.293 475.862 218.278 475.751 218.171C475.63 218.054 475.594 217.967 475.617 218.018L493.804 209.695ZM493.652 226.898C495.357 222.704 496.735 216.101 493.803 209.695L475.617 218.018C475.452 217.657 475.526 217.542 475.505 217.876C475.484 218.217 475.375 218.749 475.124 219.367L493.652 226.898ZM493.513 227.225C493.538 227.169 493.589 227.052 493.648 226.908L475.128 219.357C475.155 219.29 475.178 219.237 475.191 219.206C475.205 219.173 475.216 219.148 475.223 219.132L493.513 227.225ZM493.484 227.289L493.5 227.254L475.236 219.103L475.22 219.139L493.484 227.289ZM493.431 227.407L493.46 227.342L475.244 219.086L475.215 219.15L493.431 227.407ZM493.415 227.443L493.424 227.423L475.222 219.134L475.213 219.154L493.415 227.443ZM493.407 227.459L493.417 227.437L475.211 219.16L475.201 219.181L493.407 227.459ZM493.394 227.488L493.399 227.477L475.209 219.163L475.204 219.174L493.394 227.488ZM493.327 227.631L493.328 227.63L475.271 219.032L475.27 219.032L493.327 227.631ZM493.227 227.862C493.28 227.739 493.332 227.624 493.398 227.48L475.2 219.183C475.132 219.331 474.996 219.63 474.844 219.984L493.227 227.862ZM495.624 224.255C494.875 218.845 490.641 214.803 485.522 214.034L482.55 233.812C479.14 233.299 476.313 230.61 475.813 226.998L495.624 224.255ZM495.805 226.084C495.769 225.458 495.706 224.848 495.624 224.255L475.813 226.998C475.829 227.112 475.835 227.188 475.838 227.234L495.805 226.084ZM516.864 227.158C512.507 222.699 506.295 220.448 501.5 219.171C496.347 217.799 490.952 217.088 486.736 216.701L484.907 236.617C488.58 236.954 492.732 237.534 496.354 238.498C500.333 239.557 502.122 240.688 502.56 241.137L516.864 227.158ZM517.299 227.602C517.153 227.453 517.008 227.305 516.864 227.158L502.561 241.137C502.712 241.291 502.862 241.445 503.011 241.597L517.299 227.602ZM517.659 227.969L517.297 227.6L503.012 241.598L503.374 241.967L517.659 227.969ZM517.688 227.999L517.662 227.973L503.37 241.964L503.397 241.991L517.688 227.999ZM534.261 263.156C534.059 254.273 532.029 247.339 528.629 241.42C525.396 235.79 521.119 231.499 517.684 227.995L503.401 241.995C507.114 245.783 509.529 248.322 511.286 251.38C512.876 254.149 514.133 257.763 514.266 263.611L534.261 263.156ZM531.263 282.997C532.499 280.112 533.546 276.457 534.135 272.875C534.683 269.541 535.068 264.926 533.9 260.712L514.627 266.056C514.587 265.91 514.67 266.155 514.662 266.933C514.655 267.657 514.573 268.577 514.4 269.63C514.043 271.803 513.411 273.88 512.88 275.119L531.263 282.997ZM517.156 293.717C521.378 292.849 528.236 290.061 531.263 282.997L512.88 275.119C513.067 274.682 513.296 274.368 513.473 274.173C513.642 273.986 513.76 273.91 513.764 273.908C513.769 273.905 513.708 273.943 513.574 273.996C513.442 274.048 513.288 274.094 513.131 274.126L517.156 293.717ZM514.126 294.01C514.484 293.992 514.891 293.972 515.228 293.951C515.395 293.94 515.609 293.926 515.826 293.907C515.892 293.901 516.488 293.854 517.157 293.717L513.13 274.126C513.241 274.104 513.336 274.086 513.412 274.073C513.489 274.059 513.557 274.048 513.612 274.04C513.667 274.032 513.716 274.025 513.757 274.019C513.797 274.014 513.833 274.009 513.863 274.006C513.922 273.999 513.968 273.994 513.998 273.991C514.029 273.988 514.052 273.986 514.065 273.984C514.089 273.982 514.094 273.982 514.075 273.983C514.058 273.985 514.028 273.987 513.984 273.989C513.941 273.992 513.889 273.995 513.828 273.999C513.766 274.002 513.698 274.006 513.623 274.01C513.47 274.018 513.302 274.027 513.11 274.036L514.126 294.01ZM513.617 294.023H513.618V274.023H513.617V294.023ZM511.842 294.153C512.358 294.103 513.172 294.059 514.126 294.01L513.109 274.036C512.31 274.077 510.975 274.143 509.892 274.249L511.842 294.153ZM500.942 282.98C501.28 280.23 502.991 277.934 505.356 276.774L514.169 294.727C517.723 292.983 520.286 289.532 520.792 285.422L500.942 282.98ZM519.653 284.216C519.635 284.129 519.624 284.077 519.614 284.03C519.606 283.986 519.602 283.968 519.602 283.965L499.923 287.536C499.982 287.859 500.045 288.159 500.075 288.304L519.653 284.216ZM519.732 284.601C519.702 284.451 519.672 284.305 519.653 284.217L500.075 288.304C500.097 288.411 500.107 288.456 500.113 288.489L519.732 284.601ZM519.879 285.45C519.828 285.099 519.77 284.794 519.731 284.598L500.114 288.492C500.117 288.509 500.116 288.501 500.112 288.478C500.107 288.455 500.098 288.402 500.087 288.327L519.879 285.45ZM519.911 294.909C520.748 290.933 520.136 287.212 519.879 285.449L500.087 288.328C500.236 289.347 500.307 289.913 500.332 290.386C500.354 290.809 500.318 290.891 500.34 290.789L519.911 294.909ZM498.983 313.499C509.679 312.651 517.817 304.854 519.911 294.909L500.34 290.789C499.971 292.541 498.773 293.453 497.401 293.562L498.983 313.499ZM489.004 311.462C492.444 313.347 496.153 313.724 498.983 313.499L497.401 293.562C497.499 293.554 497.586 293.556 497.705 293.578C497.816 293.597 498.15 293.668 498.617 293.924L489.004 311.462ZM503.724 304.005L503.729 303.969L483.892 301.417L483.888 301.454L503.724 304.005ZM490.287 314.375C496.86 315.223 502.876 310.582 503.724 304.009L483.888 301.45C484.453 297.068 488.464 293.974 492.846 294.54L490.287 314.375ZM489.136 314.169C489.517 314.257 489.901 314.325 490.286 314.375L492.846 294.54C493.1 294.572 493.355 294.618 493.61 294.676L489.136 314.169ZM493.507 318.83C497.227 315.787 500.173 311.692 501.198 306.284L481.547 302.561C481.541 302.594 481.536 302.614 481.533 302.626C481.529 302.637 481.527 302.642 481.527 302.644C481.526 302.646 481.525 302.649 481.523 302.653C481.521 302.657 481.515 302.667 481.505 302.683C481.471 302.736 481.312 302.967 480.842 303.351L493.507 318.83ZM476.855 324.897C482.579 324.616 488.042 323.302 493.507 318.83L480.842 303.351C479.597 304.37 478.664 304.784 475.872 304.921L476.855 324.897ZM472.78 324.954C474.25 325 475.642 324.957 476.855 324.897L475.872 304.921C474.915 304.969 474.116 304.986 473.402 304.964L472.78 324.954ZM486.447 314.883C484.455 311.871 482.005 309.321 479.405 307.205L466.777 322.714C468.073 323.769 469.065 324.856 469.766 325.916L486.447 314.883ZM496.271 348.116C497.424 335.516 492.154 323.511 486.447 314.883L469.766 325.916C474.262 332.713 476.92 340.111 476.355 346.294L496.271 348.116ZM476.782 377.879C485.598 371.822 494.997 362.049 496.271 348.115L476.355 346.294C475.861 351.692 472.05 356.864 465.457 361.394L476.782 377.879ZM445.3 385.725C456.232 387.373 468.556 383.53 476.782 377.879L465.457 361.394C460.567 364.754 453.272 366.701 448.282 365.948L445.3 385.725ZM435.894 383.343C438.35 384.107 441.769 385.192 445.3 385.725L448.282 365.948C446.523 365.683 444.582 365.1 441.837 364.246L435.894 383.343ZM436.439 383.496L436.44 383.496L441.291 364.093L441.29 364.093L436.439 383.496ZM434.113 382.794C434.68 382.965 435.259 383.145 435.893 383.342L441.836 364.246C441.217 364.053 440.553 363.846 439.888 363.646L434.113 382.794ZM421.205 376.273C425.535 380.324 431.552 382.022 434.113 382.794L439.888 363.646C438.395 363.195 437.221 362.818 436.218 362.387C435.187 361.944 434.858 361.658 434.869 361.668L421.205 376.273ZM409.983 357.458C411.724 364.768 416.185 371.577 421.205 376.273L434.868 361.668C432.236 359.205 430.129 355.719 429.439 352.823L409.983 357.458ZM409.524 354.56C409.591 355.066 409.776 356.586 409.983 357.458L429.439 352.823C429.488 353.032 429.517 353.184 429.524 353.223C429.534 353.279 429.539 353.309 429.538 353.301C429.535 353.282 429.524 353.216 429.505 353.08C429.467 352.808 429.418 352.438 429.352 351.938L409.524 354.56ZM409.504 354.393L409.504 354.395L429.372 352.103L429.372 352.1L409.504 354.393ZM409.538 354.66L409.538 354.661L429.337 351.832L429.337 351.832L409.538 354.66ZM409.736 355.671L409.736 355.671L429.139 350.821L429.139 350.82L409.736 355.671ZM417.863 353.668C414.795 353.854 412.507 352.597 411.256 351.616C410.085 350.698 409.43 349.74 409.159 349.315C408.846 348.824 408.666 348.428 408.586 348.245C408.498 348.042 408.451 347.905 408.438 347.866C408.429 347.837 408.532 348.182 408.701 349.071C409.015 350.728 409.297 352.842 409.524 354.556L429.351 351.936C429.141 350.345 428.788 347.652 428.35 345.341C428.142 344.247 427.839 342.818 427.404 341.518C427.213 340.946 426.798 339.781 426.032 338.577C425.651 337.978 424.884 336.887 423.601 335.881C422.238 334.812 419.837 333.512 416.655 333.705L417.863 353.668ZM420.478 353.108C420.67 352.988 420.75 352.938 420.812 352.901C420.869 352.867 420.819 352.9 420.698 352.96C420.582 353.017 420.297 353.154 419.88 353.29C419.469 353.425 418.772 353.613 417.863 353.668L416.655 333.705C414.343 333.845 412.569 334.665 411.786 335.055C410.919 335.487 410.137 335.986 409.876 336.149L420.478 353.108ZM417.665 354.591C419.053 354.04 420.313 353.211 420.478 353.107L409.876 336.149C409.762 336.22 409.694 336.262 409.634 336.299C409.577 336.334 409.562 336.343 409.572 336.337C409.582 336.331 409.646 336.295 409.751 336.242C409.853 336.19 410.037 336.101 410.286 336.002L417.665 354.591ZM411.38 356.165C412.634 355.963 415.129 355.598 417.666 354.591L410.285 336.003C410.259 336.013 410.121 336.065 409.771 336.141C409.384 336.226 408.947 336.299 408.188 336.422L411.38 356.165ZM411.09 356.212L411.383 356.165L408.185 336.422L407.892 336.47L411.09 356.212ZM410.965 356.233L411.103 356.21L407.878 336.472L407.74 336.494L410.965 356.233ZM409.065 356.578C409.801 356.438 410.395 356.326 410.971 356.232L407.735 336.495C406.873 336.637 406.035 336.796 405.339 336.928L409.065 356.578ZM410.364 356.24L410.364 356.24L404.04 337.266L404.039 337.266L410.364 356.24ZM409.162 356.559L409.163 356.559L405.241 336.947L405.24 336.947L409.162 356.559ZM397.632 357.215C402.341 357.948 406.685 357.029 409.064 356.578L405.338 336.928C402.407 337.484 401.455 337.569 400.707 337.453L397.632 357.215ZM385.077 349.838C387.246 352.201 391.163 356.209 397.632 357.215L400.707 337.453C400.794 337.467 400.91 337.497 401.024 337.545C401.132 337.59 401.171 337.622 401.129 337.593C401.079 337.558 400.948 337.461 400.718 337.246C400.484 337.027 400.196 336.734 399.809 336.311L385.077 349.838ZM378.124 340.434C380.068 343.84 382.355 346.874 385.077 349.838L399.809 336.311C397.944 334.28 396.591 332.443 395.496 330.523L378.124 340.434ZM300.764 309.162C307.848 322.298 318.399 335.029 333.451 342.576C348.748 350.245 367.557 351.986 389.798 345.022L383.822 325.935C365.827 331.57 352.459 329.733 342.415 324.697C332.128 319.539 324.175 310.439 318.368 299.669L300.764 309.162ZM276.281 319.716C288.677 319.189 300.717 317.25 312.24 314.052L306.892 294.78C296.823 297.574 286.292 299.273 275.432 299.734L276.281 319.716ZM274.782 342.395C277.357 332.396 280.674 322.62 284.836 314.125L266.877 305.325C261.944 315.392 258.214 326.536 255.414 337.407L274.782 342.395ZM273.821 333.878C272.748 333.017 271.65 332.231 270.541 331.512L259.655 348.29C260.245 348.673 260.794 349.068 261.302 349.476L273.821 333.878ZM280.267 370.405C283.453 367.219 285.502 363.38 286.165 359.123C286.81 354.981 286.037 351.153 284.785 347.99C282.378 341.908 277.72 337.008 273.821 333.878L261.302 349.476C263.725 351.42 265.535 353.698 266.189 355.351C266.468 356.056 266.374 356.234 266.403 356.045C266.451 355.74 266.589 355.799 266.125 356.263L280.267 370.405ZM266.481 377.693C270.509 377.476 273.831 375.444 275.417 374.386C277.373 373.081 279.094 371.578 280.267 370.405L266.125 356.262C265.948 356.44 265.667 356.702 265.32 356.991C264.974 357.28 264.627 357.542 264.317 357.749C263.988 357.969 263.828 358.041 263.848 358.032C263.868 358.023 263.997 357.968 264.224 357.905C264.446 357.844 264.85 357.752 265.402 357.723L266.481 377.693ZM266.351 377.7L266.453 377.695L265.429 357.721L265.327 357.726L266.351 377.7ZM274.645 368.518C274.645 369.692 274.398 371.478 273.273 373.312C272.115 375.2 270.53 376.318 269.224 376.922C268.049 377.466 267.069 377.613 266.727 377.659C266.382 377.705 266.104 377.712 266.333 377.701L265.344 357.726C265.282 357.729 264.71 357.751 264.086 357.834C263.466 357.917 262.224 358.124 260.823 358.772C259.292 359.481 257.518 360.748 256.226 362.852C254.969 364.902 254.645 366.971 254.645 368.518H274.645ZM271.568 376.415C271.746 376.176 272.286 375.465 272.763 374.698C273.008 374.306 273.382 373.671 273.722 372.885C273.99 372.263 274.645 370.646 274.645 368.518H254.645C254.645 367.479 254.816 366.654 254.951 366.144C255.091 365.615 255.251 365.209 255.361 364.955C255.569 364.472 255.759 364.169 255.79 364.119C255.841 364.037 255.837 364.054 255.547 364.443L271.568 376.415ZM271.613 376.32C271.571 376.388 271.536 376.442 271.509 376.482C271.483 376.522 271.461 376.553 271.447 376.574C271.432 376.596 271.422 376.611 271.416 376.618C271.411 376.625 271.409 376.628 271.411 376.625C271.417 376.617 271.431 376.598 271.46 376.559C271.489 376.52 271.522 376.476 271.568 376.415L255.547 364.443C255.488 364.521 255.021 365.131 254.653 365.72L271.613 376.32ZM269.353 382.528C269.728 379.989 270.295 378.429 271.613 376.32L254.653 365.72C251.822 370.251 250.331 374.44 249.568 379.603L269.353 382.528ZM269.013 396.348C268.859 390.957 268.76 386.542 269.353 382.528L249.568 379.603C248.673 385.662 248.877 391.875 249.021 396.919L269.013 396.348ZM269.017 396.634V396.633H249.017V396.634H269.017ZM269.017 396.635V396.634H249.017V396.635H269.017ZM269.017 396.636V396.635H249.017V396.636H269.017ZM269.017 396.636V396.636H249.017V396.636H269.017ZM269.017 396.637V396.636H249.017V396.637H269.017ZM269.017 396.638V396.637H249.017V396.638H269.017ZM269.017 396.639V396.638H249.017V396.639H269.017ZM269.017 396.639V396.639H249.017V396.639H269.017ZM269.137 402.884C269.137 400.667 269.072 398.433 269.013 396.354L249.021 396.925C249.082 399.056 249.137 401.002 249.137 402.884H269.137ZM269.186 405.104C269.158 404.215 269.137 403.526 269.137 402.884H249.137C249.137 403.9 249.17 404.912 249.196 405.741L269.186 405.104ZM269.186 405.091L269.185 405.09L249.197 405.756L249.197 405.757L269.186 405.091ZM268.495 415.249C269.448 411.317 269.257 407.327 269.186 405.106L249.196 405.743C249.285 408.53 249.258 409.711 249.058 410.537L268.495 415.249ZM264.744 424.537C265.666 422.672 267.63 418.816 268.495 415.249L249.058 410.537C248.828 411.484 248.059 413.159 246.815 415.674L264.744 424.537ZM264.538 424.954L264.746 424.534L246.814 415.678L246.606 416.098L264.538 424.954ZM245.933 444.069C255.051 439.553 260.379 433.388 264.541 424.949L246.603 416.103C244.044 421.293 241.602 423.895 237.056 426.147L245.933 444.069ZM212.693 445.968C222.055 448.763 235.679 449.148 245.933 444.069L237.056 426.147C232.585 428.362 224.453 428.607 218.414 426.804L212.693 445.968ZM182.979 416.096C187.309 431.01 197.773 441.514 212.693 445.968L218.414 426.804C209.969 424.283 204.611 418.871 202.186 410.519L182.979 416.096ZM182.521 414.218C182.622 414.655 182.832 415.587 182.979 416.096L202.186 410.519C202.217 410.625 202.236 410.699 202.24 410.713C202.246 410.736 202.248 410.744 202.244 410.73C202.237 410.701 202.223 410.643 202.199 410.543C202.152 410.342 202.09 410.074 202.01 409.726L182.521 414.218ZM182.564 414.397L182.564 414.397L201.967 409.547L201.967 409.546L182.564 414.397ZM195.899 413.471C193.91 414.817 191.397 415.459 188.823 415.066C186.548 414.719 184.977 413.682 184.175 413.049C182.701 411.886 181.968 410.603 181.838 410.38C181.58 409.942 181.429 409.598 181.376 409.475C181.31 409.323 181.274 409.223 181.267 409.204C181.256 409.172 181.28 409.237 181.339 409.439C181.395 409.626 181.463 409.869 181.542 410.165C181.87 411.4 182.237 412.984 182.521 414.218L202.01 409.725C201.743 408.566 201.3 406.641 200.869 405.023C200.667 404.262 200.393 403.284 200.081 402.419C199.965 402.096 199.638 401.196 199.08 400.247C198.886 399.916 198.094 398.556 196.565 397.349C195.736 396.695 194.14 395.646 191.84 395.295C189.241 394.898 186.704 395.545 184.694 396.905L195.899 413.471ZM194.894 414.168C195.27 413.905 195.581 413.687 195.899 413.471L184.693 396.906C184.21 397.233 183.761 397.548 183.403 397.799L194.894 414.168ZM182.829 418.811C188.948 418.489 192.707 415.704 194.894 414.169L183.403 397.799C182.84 398.195 182.51 398.424 182.213 398.615C181.945 398.787 181.826 398.846 181.796 398.86C181.783 398.866 181.821 398.848 181.88 398.833C181.936 398.819 181.916 398.831 181.778 398.839L182.829 418.811ZM141.577 382.282C144.485 401.628 159.439 420.042 182.829 418.811L181.778 398.839C171.564 399.376 163.205 391.614 161.355 379.309L141.577 382.282ZM158.567 333.182C144.533 345.747 138.92 364.607 141.577 382.282L161.355 379.309C159.588 367.555 163.426 355.677 171.908 348.083L158.567 333.182ZM193.308 322.834C182.125 321.715 168.14 324.613 158.567 333.182L171.908 348.083C176.29 344.16 184.216 342.024 191.318 342.734L193.308 322.834ZM219.06 334.478C212.918 329.684 203.391 323.842 193.308 322.834L191.318 342.734C195.757 343.178 201.624 346.24 206.754 350.244L219.06 334.478ZM227.762 344.529C225.528 340.658 222.702 337.321 219.06 334.478L206.754 350.244C208.268 351.426 209.425 352.768 210.438 354.523L227.762 344.529ZM227.786 344.571L227.764 344.533L210.435 354.519L210.457 354.556L227.786 344.571ZM212.842 343.539C212.927 343.436 213.78 342.367 215.388 341.512C216.306 341.024 217.638 340.515 219.304 340.416C221.033 340.313 222.636 340.681 223.98 341.312C226.304 342.401 227.448 344.088 227.578 344.271C227.821 344.611 227.98 344.907 227.785 344.569L210.458 354.559C210.494 354.62 210.856 355.269 211.296 355.886C211.625 356.346 212.96 358.234 215.491 359.421C218.892 361.015 222.335 360.469 224.775 359.172C226.644 358.179 227.795 356.838 228.238 356.305L212.842 343.539ZM218.75 336.928C216.718 339.043 214.758 341.229 212.842 343.539L228.238 356.305C229.828 354.387 231.462 352.564 233.172 350.784L218.75 336.928ZM217.39 347.123C217.577 347.399 217.491 347.281 217.385 347.095C217.273 346.9 216.88 346.198 216.615 345.148C216.322 343.983 216.187 342.389 216.673 340.624C217.149 338.893 218.037 337.67 218.75 336.928L233.172 350.784C234.264 349.648 235.376 348.04 235.957 345.927C236.547 343.78 236.399 341.808 236.009 340.262C235.649 338.831 235.078 337.746 234.742 337.16C234.412 336.582 234.057 336.066 233.964 335.928L217.39 347.123ZM214.789 339.55C214.85 343.836 217.282 346.963 217.39 347.123L233.964 335.928C233.688 335.52 233.89 335.788 234.089 336.201C234.338 336.717 234.767 337.797 234.788 339.268L214.789 339.55ZM223.704 323.627C220.237 325.239 217.289 327.913 215.808 331.93C214.655 335.057 214.771 338.261 214.789 339.55L234.788 339.268C234.776 338.478 234.785 338.16 234.798 338C234.808 337.869 234.796 338.245 234.574 338.848C234.318 339.54 233.88 340.282 233.258 340.913C232.681 341.499 232.199 341.733 232.138 341.761L223.704 323.627ZM248.061 322.424C241.31 320.653 232.35 319.605 223.704 323.627L232.138 341.761C234.647 340.594 238.159 340.503 242.984 341.77L248.061 322.424ZM244.035 305.202C241.314 311.812 238.383 320.122 235.865 329.504L255.181 334.69C257.466 326.177 260.116 318.677 262.53 312.815L244.035 305.202ZM113.768 197.001C129.209 262.048 184.354 311.708 252.221 318.952L254.344 299.065C195.012 292.732 146.735 249.281 133.227 192.382L113.768 197.001ZM81.0049 180.944C93.8899 191.243 107.542 198.705 119.541 203.875L127.455 185.508C116.753 180.896 104.718 174.294 93.4921 165.321L81.0049 180.944ZM92.536 182.121C93.3473 181.31 94.1082 180.491 94.8243 179.66L79.6727 166.605C79.2922 167.047 78.8693 167.503 78.3939 167.979L92.536 182.121ZM61.5768 186.189C67.2694 190.189 73.8589 190.369 78.9137 189.314C83.9754 188.258 88.9526 185.704 92.536 182.121L78.3939 167.979C78.159 168.214 77.6942 168.584 76.9933 168.952C76.3048 169.313 75.5496 169.586 74.8282 169.736C73.2155 170.073 72.8205 169.646 73.0752 169.825L61.5768 186.189ZM62.9972 188.424C64.6185 188.354 66.6668 188.225 68.8426 187.892L65.8094 168.123C64.6805 168.296 63.4598 168.385 62.1284 168.443L62.9972 188.424ZM50.6035 178.182C51.488 184.204 56.7884 188.694 62.9971 188.424L62.1285 168.443C66.2697 168.263 69.801 171.257 70.3912 175.275L50.6035 178.182ZM60.2025 187.257C61.4673 186.83 62.1528 186.608 62.7274 186.477L58.2674 166.98C56.5383 167.376 54.8824 167.944 53.809 168.306L60.2025 187.257ZM54.3023 188.866C56.6639 188.476 58.913 187.692 60.2026 187.257L53.8089 168.306C52.1783 168.856 51.5123 169.056 51.0438 169.133L54.3023 188.866ZM24.8005 181.151C31.4553 185.169 42.8776 190.753 54.3023 188.866L51.0437 169.133C47.2198 169.765 41.2629 167.728 35.1379 164.029L24.8005 181.151ZM13.3625 119.425C6.57014 123.67 2.22281 129.575 0.650881 136.55C-0.853824 143.228 0.425909 149.79 2.65684 155.322C7.02541 166.155 16.1841 175.948 24.8005 181.151L35.1378 164.029C29.8524 160.838 23.7957 154.265 21.2054 147.842C19.9569 144.746 19.8213 142.457 20.1616 140.947C20.4347 139.735 21.1927 138.116 23.9623 136.385L13.3625 119.425ZM13.1934 119.533C13.252 119.495 13.3083 119.458 13.3621 119.425L23.9627 136.384C24.055 136.327 24.1489 136.266 24.2442 136.203L13.1934 119.533ZM9.33034 131.347C9.47928 131.725 9.64681 132.095 9.83206 132.454L27.6056 123.283C27.7289 123.522 27.84 123.767 27.9384 124.017L9.33034 131.347ZM12.3491 118.137C8.83442 121.386 7.45747 126.593 9.33028 131.347L27.9385 124.017C29.1889 127.191 28.2645 130.66 25.9259 132.823L12.3491 118.137ZM9.65059 128.672C9.7229 128.855 9.74572 128.914 9.75995 128.953L28.515 122.007C28.4131 121.731 28.3091 121.469 28.252 121.325L9.65059 128.672ZM8.69352 125.678C9.00651 127.099 9.51437 128.327 9.65057 128.672L28.2521 121.325C28.2283 121.265 28.2097 121.218 28.192 121.172C28.1748 121.128 28.1612 121.094 28.15 121.064C28.1389 121.035 28.1311 121.015 28.1258 121C28.1206 120.986 28.1184 120.98 28.1187 120.981C28.1187 120.981 28.1312 121.016 28.1498 121.079C28.1684 121.143 28.1961 121.243 28.225 121.375L8.69352 125.678ZM9.25347 108.562C6.3337 115.445 7.95431 122.323 8.69352 125.678L28.225 121.375C27.8266 119.566 27.6232 118.425 27.5787 117.491C27.539 116.658 27.6549 116.397 27.6651 116.373L9.25347 108.562ZM15.118 99.4439C11.8487 102.554 10.1314 106.493 9.25347 108.562L27.6651 116.373C28.0431 115.482 28.3354 114.867 28.6043 114.402C28.8722 113.939 28.9888 113.853 28.9019 113.935L15.118 99.4439ZM12.1624 108.646C12.3323 109.364 12.5665 110.059 12.8598 110.724L31.16 102.655C31.3561 103.1 31.5117 103.562 31.624 104.037L12.1624 108.646ZM21.0737 94.2036C14.6248 95.731 10.635 102.197 12.1624 108.646L31.624 104.037C32.6423 108.336 29.9824 112.647 25.6831 113.665L21.0737 94.2036ZM24.9218 93.3663C23.5946 93.6259 22.3076 93.9114 21.0738 94.2036L25.6831 113.665C26.7275 113.418 27.7506 113.192 28.7606 112.994L24.9218 93.3663ZM16.8886 102.22C16.8878 102.238 16.8891 102.2 16.8978 102.118L36.7846 104.243C36.8246 103.868 36.8499 103.508 36.866 103.171L16.8886 102.22ZM16.9309 98.762C16.9368 100.08 16.9396 101.15 16.8886 102.22L36.866 103.171C36.9455 101.5 36.9363 99.9205 36.9307 98.6718L16.9309 98.762ZM25.301 77.1929C21.27 80.5854 18.9423 84.5451 17.8283 88.8297C16.8433 92.6182 16.9203 96.418 16.9309 98.762L36.9307 98.6718C36.9245 97.2996 36.9236 96.3491 36.9732 95.486C37.0205 94.6648 37.1036 94.1743 37.1847 93.8624C37.256 93.5884 37.3289 93.439 37.4047 93.3183C37.4837 93.1926 37.683 92.9126 38.1791 92.4951L25.301 77.1929ZM46.7222 69.7453C38.4562 69.1329 30.0887 73.1637 25.301 77.193L38.1791 92.4951C38.9662 91.8326 40.3085 91.0021 41.8827 90.397C43.4997 89.7755 44.6856 89.6492 45.2448 89.6906L46.7222 69.7453ZM62.3 74.139C57.3691 71.5239 51.9706 70.134 46.7222 69.7452L45.2448 89.6906C48.0597 89.8991 50.7175 90.6349 52.9295 91.808L62.3 74.139ZM63.0383 74.5365C62.8316 74.4243 62.5729 74.2837 62.2999 74.1389L52.9297 91.8081C53.1011 91.899 53.2743 91.993 53.4929 92.1117L63.0383 74.5365ZM63.0358 74.5352L63.0314 74.5328L53.4998 92.1154L53.5041 92.1178L63.0358 74.5352ZM63.0597 74.5482L63.0585 74.5475L53.4814 92.1054L53.4827 92.1061L63.0597 74.5482ZM63.8183 75.0067L63.8182 75.0067L52.7242 91.6477L52.7243 91.6477L63.8183 75.0067ZM64.0571 75.0691C63.865 74.9812 63.6381 74.8623 63.044 74.5397L53.4985 92.1147C53.9957 92.3848 54.8171 92.8353 55.7324 93.2543L64.0571 75.0691ZM51.3772 78.8913C51.1411 79.2935 50.9295 79.7076 50.7428 80.1314L69.0466 88.1919C68.9222 88.4743 68.7817 88.7492 68.6257 89.015L51.3772 78.8913ZM67.8007 74.6165C62.0851 71.2617 54.7321 73.1755 51.3773 78.8911L68.6256 89.0151C66.3891 92.8255 61.4871 94.1014 57.6767 91.8648L67.8007 74.6165ZM68.8041 75.2214C68.431 74.9919 68.0864 74.7842 67.8007 74.6165L57.6767 91.8649C57.8143 91.9456 58.0373 92.0794 58.3266 92.2573L68.8041 75.2214ZM54.9824 77.2553C54.8579 78.0092 54.7602 78.58 54.6429 79.0809C54.588 79.3156 54.5499 79.4402 54.5376 79.4772C54.5187 79.5342 54.5745 79.3456 54.751 79.0162L72.3796 88.4625C73.3553 86.6416 73.8531 84.7643 74.1163 83.6406C74.4076 82.3963 74.6036 81.1894 74.7151 80.5141L54.9824 77.2553ZM55.4471 74.9578C55.1967 75.8635 55.0237 77.0053 54.9824 77.2552L74.7151 80.5141C74.7387 80.3711 74.7576 80.2564 74.7752 80.1522C74.7927 80.0484 74.8051 79.9776 74.814 79.9286C74.8235 79.8765 74.8238 79.8781 74.816 79.9148C74.8117 79.9353 74.8029 79.9762 74.7895 80.0329C74.7764 80.0882 74.7548 80.1756 74.7242 80.2864L55.4471 74.9578ZM92.0002 45.2064C76.4337 46.9536 60.0835 58.1847 55.4471 74.9578L74.7242 80.2864C76.8046 72.76 85.2723 66.0871 94.2311 65.0816L92.0002 45.2064ZM121.979 57.4484C114.693 46.7797 101.533 44.1364 92.0002 45.2064L94.2311 65.0815C99.5548 64.484 103.879 66.4094 105.463 68.7277L121.979 57.4484ZM122.195 87.866C126.892 82.5343 127.347 75.7551 126.837 71.0482C126.307 66.1579 124.527 61.1795 121.979 57.4484L105.463 68.7277C105.674 69.0369 106.013 69.6552 106.331 70.5447C106.642 71.4147 106.86 72.3424 106.953 73.2022C107.048 74.0807 106.991 74.6714 106.926 74.9664C106.867 75.2399 106.859 75.0179 107.187 74.6453L122.195 87.866ZM116.394 92.4384C117.408 91.8191 120.058 90.2911 122.195 87.866L107.188 74.6453C107.367 74.442 107.444 74.4151 107.227 74.5705C107.123 74.6446 106.977 74.7432 106.761 74.8805C106.537 75.023 106.297 75.1699 105.968 75.3714L116.394 92.4384ZM115.128 93.2468C115.339 93.0909 115.637 92.9013 116.394 92.4384L105.968 75.3714C105.352 75.7476 104.283 76.3925 103.24 77.1634L115.128 93.2468ZM109.168 98.7209C111.113 96.6181 113.148 94.7106 115.128 93.2469L103.24 77.1633C99.9538 79.5926 96.9861 82.4373 94.4861 85.1401L109.168 98.7209ZM104.8 107.243C105.024 104.381 106.191 101.94 109.168 98.7209L94.486 85.1401C89.6223 90.3982 85.5491 96.8802 84.8612 105.686L104.8 107.243ZM104.822 113.932C104.714 111.204 104.647 109.211 104.8 107.244L84.8612 105.686C84.6011 109.016 84.7372 112.173 84.8381 114.723L104.822 113.932ZM104.83 114.327V114.327H84.8303V114.327H104.83ZM104.83 114.327V114.327H84.8303V114.327H104.83ZM104.83 114.328V114.327H84.8303V114.328H104.83ZM104.83 114.328V114.328H84.8303V114.328H104.83ZM104.83 114.328V114.328H84.8303V114.328H104.83ZM104.83 114.328V114.328H84.8303V114.328H104.83ZM104.83 114.328V114.328H84.8303V114.328H104.83ZM104.83 114.328V114.328H84.8303V114.328H104.83ZM104.83 114.328V114.328H84.8303V114.328H104.83ZM104.83 114.328V114.328H84.8303V114.328H104.83ZM102.862 134.118C105.343 125.845 105.025 119.049 104.822 113.933L84.8381 114.724C85.0373 119.757 85.1402 123.585 83.7045 128.373L102.862 134.118ZM102.785 134.421C102.801 134.339 102.825 134.238 102.862 134.118L83.7045 128.373C83.4942 129.074 83.3161 129.783 83.1726 130.502L102.785 134.421ZM98.5312 123.953C97.2125 123.22 95.7933 122.756 94.3519 122.556L91.6056 142.367C90.6398 142.233 89.6922 141.922 88.8185 141.436L98.5312 123.953ZM103.193 140.271C106.412 134.477 104.325 127.171 98.5312 123.953L88.8184 141.436C84.9561 139.29 83.5646 134.42 85.7103 130.558L103.193 140.271ZM100.239 144.327C101.519 142.997 102.468 141.577 103.193 140.27L85.7103 130.558C85.6489 130.668 85.623 130.702 85.6371 130.682C85.6524 130.661 85.7141 130.577 85.8292 130.457L100.239 144.327ZM103.262 136.589C102.994 135.972 102.867 135.548 102.805 135.265L83.263 139.519C83.6567 141.328 84.2435 143.002 84.9105 144.542L103.262 136.589ZM106.337 152.102C106.573 146.576 105.346 141.4 103.262 136.589L84.9105 144.542C86.0416 147.152 86.4378 149.311 86.355 151.248L106.337 152.102ZM123.9 155.694C115.803 151.75 108.074 147.277 101.707 143.234L90.9848 160.117C97.8563 164.481 106.246 169.342 115.143 173.675L123.9 155.694ZM109.479 163.126C109.491 163.75 109.507 164.373 109.527 164.995L129.517 164.373C129.5 163.827 129.486 163.281 129.475 162.734L109.479 163.126ZM119.448 172.93H119.477V152.93H119.448V172.93ZM109.448 159.931V162.93H129.448V159.931H109.448ZM109.448 156.933V159.931H129.448V156.933H109.448ZM119.477 146.933H119.448V166.933H119.477V146.933ZM266.184 0.031312C180.392 1.71434 111.162 70.9438 109.479 156.736L129.475 157.129C130.948 82.0745 191.522 21.4998 266.577 20.0275L266.184 0.031312ZM256.38 10V10.0294H276.38V10H256.38ZM269.379 0H266.38V20H269.379V0ZM272.378 0H269.379V20H272.378V0ZM282.378 10.0294V10H262.378V10.0294H282.378ZM429.279 156.736C427.596 70.9438 358.366 1.71434 272.574 0.031312L272.182 20.0275C347.236 21.4998 407.81 82.0745 409.283 157.129L429.279 156.736ZM419.31 146.933H419.281V166.933H419.31V146.933ZM429.31 159.931V156.933H409.31V159.931H429.31ZM429.31 162.93V159.931H409.31V162.93H429.31ZM419.281 172.93H419.31V152.93H419.281V172.93ZM400.24 209.606C387.042 244.353 360.385 272.497 326.642 287.65L334.835 305.895C373.397 288.577 403.846 256.437 418.936 216.708L400.24 209.606ZM439.317 223.601C433.422 217.265 425.216 210.495 414.503 204.449L404.673 221.866C413.644 226.93 420.217 232.434 424.676 237.226L439.317 223.601ZM436.363 239.585C436.648 239.356 436.821 239.218 436.981 239.099C437.052 239.046 437.095 239.016 437.112 239.005C437.131 238.992 437.1 239.013 437.025 239.057L426.968 221.77C425.533 222.605 424.246 223.665 423.835 223.995L436.363 239.585ZM435.775 240.052C435.995 239.881 436.224 239.697 436.364 239.585L423.835 223.995C423.652 224.142 423.586 224.195 423.55 224.223L435.775 240.052ZM435.402 240.925C435.387 241.066 435.374 241.05 435.426 240.892C435.475 240.743 435.554 240.551 435.662 240.35C435.77 240.147 435.872 240.001 435.936 239.921C436.007 239.832 435.97 239.901 435.775 240.052L423.55 224.223C421.054 226.15 419.244 228.643 418.03 230.909C416.808 233.192 415.815 235.947 415.512 238.831L435.402 240.925ZM437.575 243.751C436.149 242.735 435.652 242.092 435.493 241.823C435.433 241.721 435.417 241.666 435.406 241.616C435.394 241.561 435.356 241.355 435.402 240.925L415.512 238.831C414.999 243.704 416.003 248.14 418.26 251.973C420.394 255.596 423.349 258.173 425.971 260.041L437.575 243.751ZM440.855 253.578C440.855 256.412 439.374 258.894 437.191 260.301L426.355 243.491C423.068 245.61 420.855 249.333 420.855 253.578H440.855ZM432.855 245.578C437.274 245.578 440.855 249.16 440.855 253.578H420.855C420.855 260.206 426.228 265.578 432.855 265.578V245.578ZM434.21 245.638C433.658 245.586 433.18 245.578 432.855 245.578V265.578C432.849 265.578 432.798 265.578 432.716 265.575C432.633 265.572 432.502 265.566 432.336 265.55L434.21 245.638ZM436.89 266.8C437.749 265.387 438.835 264.06 440.026 262.969L426.52 248.219C423.895 250.622 421.616 253.426 419.803 256.406L436.89 266.8ZM433.894 275.511C434.19 272.555 435.253 269.491 436.89 266.8L419.803 256.406C416.741 261.44 414.611 267.35 413.993 273.521L433.894 275.511ZM419.006 288.22C420.951 286.348 423.558 284.904 426.317 284.231L421.571 264.802C415.429 266.302 409.662 269.455 405.139 273.808L419.006 288.22ZM417.277 297.333C417.182 296.19 417.351 293.843 417.984 291.355C418.284 290.179 418.625 289.221 418.939 288.547C419.297 287.779 419.406 287.835 419.006 288.22L405.139 273.808C401.378 277.426 399.53 282.776 398.602 286.422C397.577 290.451 397.02 295.089 397.347 299.001L417.277 297.333ZM402.984 307.186C403.045 307.212 403.107 307.24 403.172 307.27L411.453 289.065C411.322 289.005 411.189 288.945 411.054 288.886L402.984 307.186ZM393.088 308.42C393.452 307.707 394.267 306.868 396.303 306.455C398.461 306.017 401.033 306.325 402.984 307.186L411.054 288.886C405.431 286.406 398.657 285.57 392.326 286.854C385.873 288.164 379.056 291.915 375.272 299.331L393.088 308.42ZM391.577 318.224C391.245 314.286 391.837 310.873 393.088 308.42L375.272 299.331C371.896 305.95 371.094 313.321 371.647 319.9L391.577 318.224ZM321.781 301.219C329.059 315.881 339.35 324.724 351.143 328.732C362.652 332.644 374.447 331.568 384.411 328.662L378.812 309.461C371.43 311.614 364.043 311.993 357.579 309.796C351.399 307.696 344.927 302.865 339.696 292.326L321.781 301.219Z" fill="#FFFBFB"/>
<path d="M407.019 298.036C407.117 298.079 407.215 298.123 407.313 298.167C406.89 293.112 408.765 284.196 412.073 281.014C417.51 275.781 425.642 272.848 433.187 274.108C437.902 274.895 443.142 276.541 447.415 278.701C451.196 280.612 456.637 286.561 456.637 286.561C459.693 289.661 465.074 298.495 462.148 309.037C468.26 311.087 474.515 314.969 478.107 320.4C483.208 328.112 487.172 337.813 486.313 347.205C485.429 356.87 478.824 364.343 471.12 369.636C464.562 374.142 454.753 377.037 446.791 375.836C443.509 375.341 440.173 374.176 437.001 373.22C434.004 372.316 430.371 371.154 428.037 368.97C424.211 365.391 420.927 360.243 419.711 355.141C419.484 354.184 418.434 343.615 417.26 343.686C416.232 343.749 414.928 344.919 413.976 345.297C412.484 345.889 410.926 346.106 409.353 346.363C405.969 346.918 402.634 347.873 399.17 347.334C396.275 346.884 394.35 345.151 392.443 343.075C388.341 338.607 385.753 334.336 383.692 328.611C380.935 320.954 380.406 311.275 384.181 303.876C388.328 295.746 399.445 294.696 407.019 298.036Z" fill="#E7E2DE"/>
<path d="M420.767 307.094C419.417 306.466 418.232 304.953 417.012 304.104C413.914 301.949 410.477 299.56 407.019 298.036C399.445 294.696 388.328 295.746 384.181 303.876C380.406 311.275 380.935 320.954 383.692 328.611C385.753 334.336 388.341 338.607 392.443 343.075C394.35 345.151 396.275 346.884 399.17 347.334C402.634 347.873 405.969 346.918 409.353 346.363C410.926 346.106 412.484 345.889 413.976 345.297C414.928 344.919 416.232 343.749 417.26 343.686M417.26 343.686C418.434 343.615 419.484 354.184 419.711 355.141C420.927 360.243 424.211 365.391 428.037 368.97C430.371 371.154 434.004 372.316 437.001 373.22C440.173 374.176 443.509 375.341 446.791 375.836C454.753 377.037 464.562 374.142 471.12 369.636C478.824 364.343 485.429 356.87 486.313 347.205C487.172 337.813 483.208 328.112 478.107 320.4C474.515 314.969 468.26 311.087 462.148 309.037C465.074 298.495 459.693 289.661 456.637 286.561C456.637 286.561 451.196 280.612 447.415 278.701C443.142 276.541 437.902 274.895 433.187 274.108C425.642 272.848 417.51 275.781 412.073 281.014C408.765 284.196 406.89 293.112 407.313 298.167M417.26 343.686C420.852 342.412 428.037 337.613 428.037 328.611" stroke="#2E2D30" stroke-width="4" stroke-linecap="round"/>
<path d="M429.663 232.137C430.459 231.522 431.985 230.167 433.069 229.97C442.209 224.18 445.052 220.123 451.955 215.934C457.824 211.438 465.644 207.909 473.242 207.909C477.948 207.909 482.578 209.194 484.711 213.856C486.038 216.755 485.56 220.25 484.389 223.132C484.259 223.451 482.782 226.415 483.744 226.486C491.602 227.069 504.478 228.79 509.713 234.147C517.201 241.809 523.916 248.084 524.264 263.384C525.431 267.592 523.839 274.935 522.072 279.058C520.909 281.773 517.916 283.352 515.145 283.921C514.655 284.022 509.789 284.11 509.713 284.45C509.553 285.172 509.883 286.196 509.984 286.889C510.272 288.865 510.543 290.869 510.126 292.849C508.895 298.698 504.227 303.052 498.193 303.531C496.259 303.684 493.897 303.203 492.529 301.699C492.372 301.526 491.866 300.434 491.639 300.434C491.54 300.434 491.576 302.495 491.575 302.55C491.461 306.126 489.949 308.821 487.175 311.091C483.82 313.836 480.622 314.7 476.364 314.909C473.992 315.026 471.569 315.033 469.243 314.496C465.804 313.703 463.114 311.143 460.393 309.039C458.105 307.27 455.787 304.047 452.691 304.047C449.487 304.047 446.253 303.556 443.132 302.834C438.745 301.82 435.933 299.606 432.785 296.435C428.861 292.483 425.465 287.664 424.309 282.115C422.857 275.143 424.689 267.616 428.347 261.603C429.835 259.157 431.754 256.872 433.933 255.01C434.821 254.253 435.172 254.074 434.024 253.372C428.844 250.206 424.766 246.445 425.457 239.878C425.741 237.181 427.477 233.825 429.663 232.137Z" fill="#E7E2DE" stroke="#2E2D30" stroke-width="4" stroke-linecap="round"/>
<path d="M471.423 226.273C451.921 189.002 401.365 176.945 377.966 175.601C349.386 174.749 345.706 184.502 348.218 191.998C349.163 194.817 352.07 196.286 355.026 196.603C402.586 201.706 428.317 223.719 437.536 237.281C439.157 239.666 441.462 241.628 444.304 242.12C461.074 245.024 468.996 238.148 471.809 232.316C472.736 230.395 472.412 228.163 471.423 226.273Z" fill="#2E2D30"/>
<path d="M239.563 382.132C237.764 347.348 250.808 312.664 257.555 299.67C267.749 285.876 280.295 290.424 285.293 294.422C264.903 320.211 258.305 369.138 257.555 390.378L239.563 382.132Z" fill="#2E2D30"/>
<path d="M403.629 328.717C334.344 362.363 305.547 308.86 298.879 274.073C298.383 271.485 298.942 268.666 301.075 267.118C306.594 263.111 313.918 265.038 319.003 267.653C321.331 268.85 322.727 271.263 323.247 273.829C334.878 331.159 373.428 325.405 395.26 313.351C398.123 311.77 401.726 311.151 404.222 313.265C408.19 316.625 408.421 321.075 407.571 324.417C407.072 326.376 405.448 327.834 403.629 328.717Z" fill="#2E2D30"/>
<path d="M76.9527 164.019C97.8818 184.571 123.71 195.891 140.326 200.845C145.548 202.403 150.601 195.586 152.055 190.334C153.943 183.52 148.101 175.442 141.325 173.421C122.243 167.728 101.132 155.199 89.2218 146.96C87.3555 145.669 85.0918 144.874 82.892 145.432C75.152 147.394 73.9798 154.506 74.6207 159.637C74.8317 161.326 75.7382 162.827 76.9527 164.019Z" fill="#2E2D30"/>
<circle cx="269.379" cy="159.931" r="147.931" fill="#E7E2DE" stroke="#2E2D30" stroke-width="4"/>
<path d="M342.343 159.931C342.343 201.09 333.998 238.254 320.598 265.054C307.138 291.974 288.913 307.863 269.378 307.863C249.842 307.863 231.618 291.974 218.158 265.054C204.758 238.254 196.412 201.09 196.412 159.931C196.412 118.772 204.758 81.6083 218.158 54.8083C231.618 27.8887 249.842 12 269.378 12C288.913 12 307.138 27.8887 320.598 54.8083C333.998 81.6083 342.343 118.772 342.343 159.931Z" fill="#E7E2DE" stroke="#2E2D30" stroke-width="4"/>
<rect x="266.381" y="10" width="4" height="299.863" fill="#2E2D30"/>
<rect x="119.447" y="156.933" width="299.863" height="4" fill="#2E2D30"/>
<rect x="143.436" y="80.4678" width="251.885" height="4" fill="#2E2D30"/>
<rect x="142" y="233" width="254" height="4" fill="#2E2D30"/>
<path d="M291.776 218.318C292.941 225.653 290.541 231.947 285.176 236.914C279.739 241.946 271.182 245.668 260.076 247.432C248.972 249.196 238.711 248.464 231.01 245.454C223.351 242.461 218.383 237.307 217.247 230.157C216.666 226.497 217.46 224.892 218.561 224.004C219.898 222.927 222.289 222.362 226.063 222.192C228.499 222.083 231.229 222.138 234.277 222.2C235.881 222.232 237.574 222.266 239.357 222.279C244.444 222.316 250.086 222.17 255.916 221.244C261.75 220.318 266.935 218.743 271.43 217.18C273.22 216.558 274.863 215.954 276.386 215.393C278.774 214.513 280.871 213.741 282.79 213.178C285.977 212.241 287.865 212.159 289.043 212.721C290.054 213.202 291.169 214.499 291.776 218.318Z" fill="#FFFBFB" stroke="#2E2D30" stroke-width="4"/>
<line x1="264" y1="219" x2="264" y2="248" stroke="#2E2D30" stroke-width="4"/>
<line x1="264" y1="219" x2="264" y2="248" stroke="#2E2D30" stroke-width="4"/>
<line x1="264" y1="219" x2="264" y2="248" stroke="#2E2D30" stroke-width="4"/>
<line x1="241.395" y1="221.403" x2="241.395" y2="248.39" stroke="#2E2D30" stroke-width="4"/>
<line x1="241.395" y1="221.403" x2="241.395" y2="248.39" stroke="#2E2D30" stroke-width="4"/>
<line x1="241.395" y1="221.403" x2="241.395" y2="248.39" stroke="#2E2D30" stroke-width="4"/>
<path d="M294.867 203.411C296.616 203.911 300.415 206.71 301.614 213.906" stroke="#2E2D30" stroke-width="4" stroke-linecap="round"/>
<path d="M227.921 332.694C224.863 334.116 224.744 336.22 224.789 339.408C224.816 341.32 227.286 342.477 225.961 343.856C224.09 345.803 222.293 347.808 220.54 349.922C219.825 350.784 219.583 350.364 219.122 349.563L219.1 349.526C217.477 346.712 215.485 344.373 212.907 342.361C207.271 337.962 199.574 333.51 192.313 332.784C183.171 331.87 172.215 334.386 165.238 340.633C153.98 350.711 149.254 366.081 151.466 380.795C153.845 396.621 165.502 409.709 182.304 408.825C185.853 408.638 187.581 407.025 190.297 405.188C190.747 404.884 192.379 412.603 192.583 413.307C195.96 424.941 203.871 432.899 215.554 436.386C223.254 438.685 234.132 438.755 241.495 435.108C248.327 431.724 252.212 427.34 255.572 420.526C256.681 418.278 258.194 415.297 258.777 412.893C259.552 409.697 259.137 406.128 259.137 402.884C259.137 395.754 258.416 388.136 259.461 381.065C260.03 377.214 261.059 374.34 263.133 371.02C263.472 370.478 264.646 369.143 264.646 368.518C264.646 367.728 265.33 367.741 265.942 367.708C268.323 367.579 271.609 364.92 273.197 363.333C280.496 356.034 273.884 346.751 267.562 341.677C261.978 337.195 254.775 334.937 248.04 332.826L247.904 332.784C241.478 330.77 234.272 329.74 227.921 332.694Z" fill="#E7E2DE" stroke="#2E2D30" stroke-width="4" stroke-linecap="round"/>
<path d="M169.176 353.033C174.807 353.033 179.996 354.01 185.312 356.357C190.152 358.494 194.509 361.8 198.083 365.682C202.824 370.832 203.507 376.361 204.935 382.954" stroke="#2E2D30" stroke-width="4" stroke-linecap="round"/>
<path d="M213.693 385.873C218.601 385.873 223.352 385.897 228.167 387.251C238.359 390.118 244.563 397.974 250.183 406.307" stroke="#2E2D30" stroke-width="4" stroke-linecap="round"/>
<path d="M158.637 377.068L174.042 360.379" stroke="#2E2D30" stroke-width="4" stroke-linecap="round"/>
<path d="M158.637 377.068L174.042 360.379" stroke="#2E2D30" stroke-width="4" stroke-linecap="round"/>
<path d="M158.637 377.068L174.042 360.379" stroke="#2E2D30" stroke-width="4" stroke-linecap="round"/>
<path d="M165.057 384.77L180.462 368.081" stroke="#2E2D30" stroke-width="4" stroke-linecap="round"/>
<path d="M165.057 384.77L180.462 368.081" stroke="#2E2D30" stroke-width="4" stroke-linecap="round"/>
<path d="M165.057 384.77L180.462 368.081" stroke="#2E2D30" stroke-width="4" stroke-linecap="round"/>
<path d="M170.191 391.189L185.596 374.5" stroke="#2E2D30" stroke-width="4" stroke-linecap="round"/>
<path d="M170.191 391.189L185.596 374.5" stroke="#2E2D30" stroke-width="4" stroke-linecap="round"/>
<path d="M170.191 391.189L185.596 374.5" stroke="#2E2D30" stroke-width="4" stroke-linecap="round"/>
<path d="M179.18 396.324L194.585 379.635" stroke="#2E2D30" stroke-width="4" stroke-linecap="round"/>
<path d="M179.18 396.324L194.585 379.635" stroke="#2E2D30" stroke-width="4" stroke-linecap="round"/>
<path d="M179.18 396.324L194.585 379.635" stroke="#2E2D30" stroke-width="4" stroke-linecap="round"/>
<path d="M203.57 413.012L218.975 396.323" stroke="#2E2D30" stroke-width="4" stroke-linecap="round"/>
<path d="M203.57 413.012L218.975 396.323" stroke="#2E2D30" stroke-width="4" stroke-linecap="round"/>
<path d="M203.57 413.012L218.975 396.323" stroke="#2E2D30" stroke-width="4" stroke-linecap="round"/>
<path d="M224.109 428.417L239.514 411.729" stroke="#2E2D30" stroke-width="4" stroke-linecap="round"/>
<path d="M224.109 428.417L239.514 411.729" stroke="#2E2D30" stroke-width="4" stroke-linecap="round"/>
<path d="M224.109 428.417L239.514 411.729" stroke="#2E2D30" stroke-width="4" stroke-linecap="round"/>
<path d="M216.408 423.283L231.813 406.594" stroke="#2E2D30" stroke-width="4" stroke-linecap="round"/>
<path d="M216.408 423.283L231.813 406.594" stroke="#2E2D30" stroke-width="4" stroke-linecap="round"/>
<path d="M216.408 423.283L231.813 406.594" stroke="#2E2D30" stroke-width="4" stroke-linecap="round"/>
<path d="M208.703 419.431L224.108 402.742" stroke="#2E2D30" stroke-width="4" stroke-linecap="round"/>
<path d="M208.703 419.431L224.108 402.742" stroke="#2E2D30" stroke-width="4" stroke-linecap="round"/>
<path d="M208.703 419.431L224.108 402.742" stroke="#2E2D30" stroke-width="4" stroke-linecap="round"/>
<path d="M94.8308 158.869C97.2136 152.572 96.7122 146.626 94.0861 140.566C92.7242 137.423 92.2992 134.526 93.2831 131.245C96.2598 121.319 94.2259 114.208 94.8308 106.465C95.2866 100.631 97.9064 96.1693 101.827 91.9307C104.05 89.5279 106.551 87.1518 109.184 85.2053C110.968 83.887 113.206 82.9417 114.691 81.2559C118.778 76.6164 116.804 67.6035 113.721 63.0883C109.286 56.5948 100.544 54.3104 93.1156 55.1442C80.853 56.5206 68.4441 65.4726 65.0857 77.6223C64.7222 78.937 64.2563 85.4331 61.8358 84.8443C60.1725 84.4397 59.0197 83.7188 57.6148 82.9737C54.0433 81.0796 50.0151 80.0168 45.9835 79.7182C41.0465 79.3524 35.1655 81.9614 31.74 84.8443C25.6987 89.9285 27.2092 95.7267 26.8773 102.696C26.7542 105.281 25.8682 104.435 24.0337 105.291C21.1728 106.626 19.6358 109.695 18.4593 112.468C16.9453 116.037 17.6553 119.878 18.4593 123.527C18.8569 125.331 20.2715 126.899 18.6624 127.905C-0.461425 139.857 16.0673 164.197 29.9692 172.59C36.3591 176.448 45.0487 180.259 52.673 179C57.4649 178.208 62.744 174.458 66.9588 177.736C72.3725 181.947 81.1999 179.315 85.4649 175.05C90.4902 170.025 92.3772 165.353 94.8308 158.869Z" fill="#E7E2DE" stroke="#2E2D30" stroke-width="4" stroke-linecap="round"/>
<path d="M20.4961 126.949C24.8389 125.238 29.0785 125.456 33.6643 125.456C38.0474 125.456 42.9973 125.666 46.8079 128.124C50.588 130.563 52.894 134.099 55.5949 137.572C57.854 140.476 59.1599 147.72 56.8187 150.814C53.2359 155.548 49.8347 155.828 44.3848 156.737" stroke="#2E2D30" stroke-width="4" stroke-linecap="round"/>
<path d="M23.8398 105.881C29.3578 104.574 35.03 103.663 40.7219 104.496C45.1957 105.15 49.6717 106.922 53.746 108.794C56.7929 110.194 59.2827 112.849 60.8406 115.798C62.4468 118.838 63.7621 121.76 63.9218 125.275C64.0616 128.35 64.3481 131.465 64.1419 134.557C64.0226 136.347 61.9259 140.603 59.7272 140.603" stroke="#2E2D30" stroke-width="4" stroke-linecap="round"/>
<path d="M61.7266 84.9658C62.9569 85.688 66.8975 88.151 67.8302 89.2321C70.5503 92.385 72.267 95.3111 73.0993 99.4727C73.4581 101.267 73.2417 103.257 73.2417 105.078C73.2417 108.126 72.8236 111.366 71.5069 114.154C70.4746 116.34 69.1696 118.23 67.3123 119.734C66.8421 120.114 65.9677 120.246 65.7846 120.795" stroke="#2E2D30" stroke-width="4" stroke-linecap="round"/>
<path d="M62.4766 176.436C65.4738 176.306 68.8238 175.993 71.5973 174.794C75.333 173.18 77.0151 169.595 78.2372 165.929" stroke="#2E2D30" stroke-width="4" stroke-linecap="round"/>
<path d="M86.4648 137.398C89.5786 137.398 91.1382 137.26 92.7034 134.443" stroke="#2E2D30" stroke-width="4" stroke-linecap="round"/>
<path d="M432.855 253.578C434.438 253.578 434.962 254.103 436.326 254.723C437.959 255.465 439.145 255.815 441.013 255.832C443.91 255.858 446.768 255.188 449.599 255.188" stroke="#2E2D30" stroke-width="4" stroke-linecap="round"/>
<path d="M483.738 225.901C483.975 227.616 483.81 228.968 483.136 230.59C481.737 233.952 479.886 236.967 477.785 239.933" stroke="#2E2D30" stroke-width="4" stroke-linecap="round"/>
<path d="M447.637 285.877C449.736 289.429 452.749 292.267 454.589 296.04C455.789 298.499 456.882 301.904 456.882 304.698" stroke="#2E2D30" stroke-width="4" stroke-linecap="round"/>
<path d="M491.821 302.474C492.072 300.531 492.147 298.467 491.935 296.519C491.573 293.179 490.005 290.178 488.279 287.373" stroke="#2E2D30" stroke-width="4" stroke-linecap="round"/>
<path d="M508.882 283.954C508.79 280.654 508.308 277.997 506.271 275.378" stroke="#2E2D30" stroke-width="4" stroke-linecap="round"/>
<circle cx="185.417" cy="144.938" r="47.4773" fill="#FFFBFB" stroke="#2E2D30" stroke-width="4"/>
<mask id="mask0_1358_2974" style="mask-type:alpha" maskUnits="userSpaceOnUse" x="135" y="95" width="100" height="100">
<circle cx="185.417" cy="144.938" r="47.4773" fill="#FFFBFB" stroke="#2E2D30" stroke-width="4"/>
</mask>
<g mask="url(#mask0_1358_2974)">
<circle cx="153.182" cy="153.184" r="29.2366" fill="#2E2D30"/>
</g>
<mask id="path-44-inside-1_1358_2974" fill="white">
<path d="M234.894 143.438C234.894 137.138 233.614 130.899 231.128 125.078C228.641 119.257 224.997 113.968 220.403 109.513C215.808 105.058 210.354 101.524 204.351 99.1126C198.348 96.7014 191.914 95.4604 185.417 95.4604C178.919 95.4604 172.485 96.7014 166.483 99.1126C160.48 101.524 155.025 105.058 150.431 109.513C145.837 113.968 142.192 119.257 139.706 125.078C137.219 130.899 135.939 137.138 135.939 143.438L185.417 143.438H234.894Z"/>
</mask>
<path d="M234.894 143.438C234.894 137.138 233.614 130.899 231.128 125.078C228.641 119.257 224.997 113.968 220.403 109.513C215.808 105.058 210.354 101.524 204.351 99.1126C198.348 96.7014 191.914 95.4604 185.417 95.4604C178.919 95.4604 172.485 96.7014 166.483 99.1126C160.48 101.524 155.025 105.058 150.431 109.513C145.837 113.968 142.192 119.257 139.706 125.078C137.219 130.899 135.939 137.138 135.939 143.438L185.417 143.438H234.894Z" fill="#E7E2DE" stroke="#2E2D30" stroke-width="8" mask="url(#path-44-inside-1_1358_2974)"/>
<circle cx="170.5" cy="148.5" r="4.5" fill="#FFFBFB"/>
<circle cx="176" cy="155" r="2" fill="#FFFBFB"/>
<circle cx="269.38" cy="144.938" r="47.4773" fill="#FFFBFB" stroke="#2E2D30" stroke-width="4"/>
<mask id="mask1_1358_2974" style="mask-type:alpha" maskUnits="userSpaceOnUse" x="219" y="95" width="100" height="100">
<circle cx="269.38" cy="144.938" r="47.4773" fill="#FFFBFB" stroke="#2E2D30" stroke-width="4"/>
</mask>
<g mask="url(#mask1_1358_2974)">
<circle cx="237.145" cy="153.184" r="29.2366" fill="#2E2D30"/>
</g>
<mask id="path-50-inside-2_1358_2974" fill="white">
<path d="M318.857 143.439C318.857 137.138 317.577 130.9 315.091 125.079C312.604 119.258 308.96 113.969 304.365 109.513C299.771 105.058 294.317 101.524 288.314 99.113C282.311 96.7019 275.877 95.4609 269.38 95.4609C262.882 95.4609 256.448 96.7019 250.446 99.113C244.443 101.524 238.988 105.058 234.394 109.513C229.8 113.969 226.155 119.258 223.669 125.079C221.182 130.9 219.902 137.138 219.902 143.439L269.38 143.439H318.857Z"/>
</mask>
<path d="M318.857 143.439C318.857 137.138 317.577 130.9 315.091 125.079C312.604 119.258 308.96 113.969 304.365 109.513C299.771 105.058 294.317 101.524 288.314 99.113C282.311 96.7019 275.877 95.4609 269.38 95.4609C262.882 95.4609 256.448 96.7019 250.446 99.113C244.443 101.524 238.988 105.058 234.394 109.513C229.8 113.969 226.155 119.258 223.669 125.079C221.182 130.9 219.902 137.138 219.902 143.439L269.38 143.439H318.857Z" fill="#E7E2DE" stroke="#2E2D30" stroke-width="8" mask="url(#path-50-inside-2_1358_2974)"/>
<circle cx="260" cy="155" r="2" fill="#FFFBFB"/>
<circle cx="253.5" cy="148.5" r="4.5" fill="#FFFBFB"/>
</svg>
