<svg width="535" height="448" viewBox="0 0 535 448" fill="none" xmlns="http://www.w3.org/2000/svg">
<path d="M417.39 183.996L407.518 182.403L406.194 190.609L414.02 193.411L417.39 183.996ZM419.282 162.93V152.93H409.476L409.284 162.734L419.282 162.93ZM460.475 210.857L453.136 217.649L458 222.905L464.543 219.992L460.475 210.857ZM484.389 223.132L493.649 226.908L493.653 226.898L484.389 223.132ZM484.369 223.178L493.501 227.254L493.508 227.239L493.514 227.225L484.369 223.178ZM484.353 223.214L493.461 227.342L493.473 227.316L493.485 227.289L484.353 223.214ZM484.324 223.278L493.425 227.423L493.428 227.415L493.432 227.407L484.324 223.278ZM484.315 223.298L475.214 219.154L475.212 219.16L484.315 223.298ZM484.305 223.32L493.4 227.477L493.404 227.468L493.408 227.459L484.305 223.32ZM484.3 223.331L493.329 227.63L493.363 227.559L493.395 227.488L484.3 223.331ZM484.3 223.332L475.271 219.032L475.235 219.108L475.201 219.183L484.3 223.332ZM484.037 223.923L474.845 219.984L469.744 231.888L482.551 233.812L484.037 223.923ZM485.823 226.659L475.839 227.234L476.334 235.829L484.908 236.617L485.823 226.659ZM509.713 234.147L502.561 241.137H502.562L509.713 234.147ZM510.156 234.599L503.012 241.597L503.013 241.598L510.156 234.599ZM510.517 234.968L517.663 227.973L517.66 227.969L510.517 234.968ZM510.544 234.995L503.398 241.991L503.402 241.995L510.544 234.995ZM524.265 263.384L514.267 263.611L514.296 264.856L514.628 266.056L524.265 263.384ZM513.619 284.023V294.023H513.873L514.127 294.01L513.619 284.023ZM513.619 284.023L513.618 274.023H513.364L513.11 274.036L513.619 284.023ZM510.868 284.201L509.893 274.249L501.921 275.029L500.943 282.98L510.868 284.201ZM509.763 285.75L505.357 276.774L498.575 280.103L499.924 287.536L509.763 285.75ZM509.865 286.26L519.654 284.217V284.216L509.865 286.26ZM509.924 286.545L500.114 288.489L500.115 288.492L509.924 286.545ZM509.984 286.889L500.088 288.327V288.328L509.984 286.889ZM493.812 302.693L498.618 293.924L485.763 286.878L483.893 301.417L493.812 302.693ZM493.807 302.73L503.725 304.009V304.006L493.807 302.73ZM491.374 304.423L493.611 294.676L483.483 292.352L481.548 302.561L491.374 304.423ZM473.092 314.959L473.403 304.964L443.849 304.045L466.778 322.714L473.092 314.959ZM438.867 373.794L441.838 364.246L441.567 364.162L441.292 364.093L438.867 373.794ZM438.866 373.794L435.894 383.342L436.165 383.427L436.44 383.496L438.866 373.794ZM419.439 353.249L409.505 354.395L409.514 354.478L409.525 354.56L419.439 353.249ZM419.439 353.247L429.373 352.1L429.357 351.966L429.338 351.832L419.439 353.247ZM419.439 353.246L429.338 351.832L429.265 351.321L429.14 350.821L419.439 353.246ZM419.439 353.246L409.525 354.556L409.599 355.119L409.737 355.671L419.439 353.246ZM413.977 345.297L410.287 336.002L410.286 336.003L413.977 345.297ZM409.785 346.294L408.189 336.422H408.186L409.785 346.294ZM409.492 346.341L407.893 336.47L407.879 336.472L409.492 346.341ZM409.354 346.364L407.741 336.494L407.736 336.495L409.354 346.364ZM407.203 346.753L405.34 336.928L404.679 337.053L404.041 337.266L407.203 346.753ZM407.203 346.753L409.164 356.559L409.774 356.437L410.365 356.24L407.203 346.753ZM407.202 346.753L409.065 356.578L409.114 356.569L409.163 356.559L407.202 346.753ZM386.811 335.479L395.497 330.523L391.507 323.529L383.823 325.935L386.811 335.479ZM309.567 304.416L318.369 299.669L314.582 292.646L306.893 294.78L309.567 304.416ZM275.857 309.725L275.433 299.734L269.493 299.987L266.878 305.325L275.857 309.725ZM265.099 339.901L255.415 337.407L253.62 344.374L259.656 348.29L265.099 339.901ZM265.942 367.708L266.454 377.695L266.468 377.694L266.482 377.693L265.942 367.708ZM265.84 367.713L266.335 377.701H266.343L266.352 377.7L265.84 367.713ZM259.018 396.633H269.018V396.491L269.014 396.348L259.018 396.633ZM259.018 396.639H249.018V396.782L249.022 396.925L259.018 396.639ZM259.192 405.423L249.197 405.741V405.749L249.198 405.756L259.192 405.423ZM259.192 405.424L269.187 405.106V405.098V405.091L259.192 405.424ZM255.781 420.106L246.816 415.674L246.815 415.678L255.781 420.106ZM255.573 420.526L246.607 416.098L246.604 416.103L255.573 420.526ZM192.266 411.972L202.011 409.726L201.99 409.636L201.968 409.547L192.266 411.972ZM192.266 411.972L182.522 414.218L182.543 414.308L182.565 414.397L192.266 411.972ZM190.297 405.188L184.695 396.905L184.694 396.906L190.297 405.188ZM189.15 405.984L194.895 414.169V414.168L189.15 405.984ZM219.101 349.526L227.765 344.533L227.763 344.529L219.101 349.526ZM219.123 349.564L210.458 354.556L210.459 354.559L219.123 349.564ZM245.524 332.097L242.985 341.77L252.604 344.293L255.182 334.69L245.524 332.097ZM253.283 309.009L262.531 312.815L267.607 300.481L254.345 299.065L253.283 309.009ZM123.499 194.691L133.228 192.382L132.068 187.495L127.456 185.508L123.499 194.691ZM87.2495 173.133L93.4932 165.321L85.9648 159.304L79.6738 166.605L87.2495 173.133ZM67.327 178.007L73.0763 169.825L69.7857 167.513L65.8105 168.123L67.327 178.007ZM60.4985 176.729L70.3923 175.275L68.8195 164.567L58.2685 166.98L60.4985 176.729ZM18.6635 127.905L23.9634 136.385L23.9638 136.384L18.6635 127.905ZM18.7199 127.868L24.2453 136.203L31.7174 131.25L27.6067 123.283L18.7199 127.868ZM19.1386 125.48L25.927 132.823L30.8397 128.281L28.5161 122.007L19.1386 125.48ZM22.011 106.69L28.903 113.935L33.9979 109.089L31.1611 102.655L22.011 106.69ZM26.8423 103.18L28.7617 112.994L36.0019 111.578L36.7857 104.243L26.8423 103.18ZM58.2667 83.3241L53.494 92.1117L53.5009 92.1154L58.2667 83.3241ZM58.271 83.3265L63.0596 74.5475L63.0482 74.5413L63.0369 74.5352L58.271 83.3265ZM58.2723 83.3272L63.8193 75.0067L63.4502 74.7606L63.0608 74.5482L58.2723 83.3272ZM58.2723 83.3272L52.7254 91.6477L53.1019 91.8987L53.4996 92.1147L58.2723 83.3272ZM59.8958 84.1617L55.7335 93.2543L64.9587 97.4773L69.0477 88.1919L59.8958 84.1617ZM63.5664 83.7393L58.3277 92.2573L67.368 97.8172L72.3807 88.4625L63.5664 83.7393ZM94.8319 106.465L104.801 107.244V107.243L94.8319 106.465ZM94.8314 114.327H104.831V114.129L104.823 113.932L94.8314 114.327ZM94.8314 114.327L84.8314 114.328V114.526L84.8391 114.724L94.8314 114.327ZM92.9798 132.461L83.1737 130.502L81.0941 140.909L91.6067 142.367L92.9798 132.461ZM93.0353 137.392L85.8303 130.457L82.1289 134.303L83.2641 139.519L93.0353 137.392ZM96.347 151.675L86.3561 151.248L86.1094 157.02L90.9859 160.117L96.347 151.675ZM119.523 164.684L115.144 173.675L130.033 180.925L129.518 164.373L119.523 164.684ZM119.478 162.93L129.476 162.734L129.284 152.93H119.478V162.93ZM119.449 162.93H109.449V172.93H119.449V162.93ZM119.449 156.933V146.933H109.449V156.933H119.449ZM119.478 156.933V166.933H129.284L129.476 157.129L119.478 156.933ZM266.381 10.0294L266.578 20.0275L276.381 19.8351V10.0294H266.381ZM266.381 10V0H256.381V10H266.381ZM272.379 10H282.379V0H272.379V10ZM272.379 10.0294H262.379V19.8351L272.183 20.0275L272.379 10.0294ZM419.282 156.933L409.284 157.129L409.476 166.933H419.282V156.933ZM419.311 156.933H429.311V146.933H419.311V156.933ZM419.311 162.93V172.93H429.311V162.93H419.311ZM409.589 213.157L414.504 204.449L404.372 198.729L400.241 209.606L409.589 213.157ZM330.739 296.773L326.643 287.65L317.161 291.908L321.782 301.219L330.739 296.773ZM431.998 230.413L437.026 239.057L447.844 232.763L439.318 223.601L431.998 230.413ZM431.774 251.896L437.192 260.301L449.59 252.309L437.576 243.751L431.774 251.896ZM433.274 255.594L440.027 262.969L456.649 247.749L434.211 245.638L433.274 255.594ZM423.945 274.516L426.318 284.231L433.191 282.552L433.895 275.511L423.945 274.516ZM407.313 298.167L403.173 307.27L418.7 314.333L417.278 297.333L407.313 298.167ZM381.613 319.062L384.412 328.662L392.263 326.372L391.578 318.224L381.613 319.062ZM427.263 185.588C428.446 178.251 429.13 170.752 429.28 163.126L409.284 162.734C409.153 169.42 408.553 175.987 407.518 182.403L427.263 185.588ZM467.814 204.064C454.527 189.708 437.048 180.411 420.761 174.581L414.02 193.411C428.48 198.586 442.762 206.44 453.136 217.649L467.814 204.064ZM473.243 197.909C467.211 197.909 461.429 199.486 456.408 201.721L464.543 219.992C467.645 218.611 470.64 217.909 473.243 217.909V197.909ZM493.805 209.695C489.18 199.59 479.243 197.909 473.243 197.909V217.909C473.977 217.909 474.57 217.96 475.032 218.039C475.494 218.119 475.745 218.212 475.843 218.256C475.926 218.293 475.863 218.278 475.752 218.171C475.631 218.054 475.595 217.967 475.618 218.018L493.805 209.695ZM493.653 226.898C495.358 222.704 496.737 216.101 493.805 209.695L475.618 218.018C475.453 217.657 475.527 217.542 475.506 217.876C475.485 218.217 475.376 218.749 475.125 219.367L493.653 226.898ZM493.514 227.225C493.539 227.169 493.59 227.052 493.649 226.908L475.129 219.357C475.156 219.29 475.179 219.237 475.192 219.206C475.206 219.173 475.217 219.148 475.224 219.132L493.514 227.225ZM493.485 227.289L493.501 227.254L475.237 219.103L475.221 219.139L493.485 227.289ZM493.432 227.407L493.461 227.342L475.245 219.086L475.216 219.15L493.432 227.407ZM493.416 227.443L493.425 227.423L475.223 219.134L475.214 219.154L493.416 227.443ZM493.408 227.459L493.418 227.437L475.212 219.16L475.202 219.181L493.408 227.459ZM493.395 227.488L493.4 227.477L475.21 219.163L475.205 219.174L493.395 227.488ZM493.328 227.631L493.329 227.63L475.272 219.032H475.271L493.328 227.631ZM493.228 227.862C493.281 227.739 493.333 227.624 493.399 227.48L475.201 219.183C475.133 219.331 474.997 219.63 474.845 219.984L493.228 227.862ZM495.625 224.255C494.876 218.845 490.642 214.803 485.523 214.034L482.551 233.812C479.141 233.299 476.314 230.61 475.814 226.998L495.625 224.255ZM495.806 226.084C495.77 225.458 495.707 224.848 495.625 224.255L475.814 226.998C475.83 227.112 475.836 227.188 475.839 227.234L495.806 226.084ZM516.865 227.158C512.508 222.699 506.296 220.448 501.501 219.171C496.348 217.799 490.953 217.088 486.737 216.701L484.908 236.617C488.581 236.954 492.733 237.534 496.355 238.498C500.334 239.557 502.123 240.688 502.561 241.137L516.865 227.158ZM517.3 227.602C517.154 227.453 517.009 227.305 516.865 227.158L502.562 241.137C502.713 241.291 502.863 241.445 503.012 241.597L517.3 227.602ZM517.66 227.969L517.298 227.6L503.013 241.598L503.375 241.967L517.66 227.969ZM517.689 227.999L517.663 227.973L503.371 241.964L503.398 241.991L517.689 227.999ZM534.262 263.156C534.06 254.273 532.03 247.339 528.63 241.42C525.397 235.79 521.12 231.499 517.685 227.995L503.402 241.995C507.115 245.783 509.53 248.322 511.287 251.38C512.877 254.149 514.134 257.763 514.267 263.611L534.262 263.156ZM531.264 282.997C532.5 280.112 533.547 276.457 534.136 272.875C534.684 269.541 535.069 264.926 533.901 260.712L514.628 266.056C514.588 265.91 514.671 266.155 514.663 266.933C514.656 267.657 514.574 268.577 514.401 269.63C514.044 271.803 513.412 273.88 512.881 275.119L531.264 282.997ZM517.157 293.717C521.379 292.849 528.237 290.061 531.264 282.997L512.881 275.119C513.068 274.682 513.297 274.368 513.474 274.173C513.643 273.986 513.761 273.91 513.765 273.908C513.77 273.905 513.709 273.943 513.575 273.996C513.443 274.048 513.289 274.094 513.132 274.126L517.157 293.717ZM514.127 294.01C514.485 293.992 514.892 293.972 515.229 293.951C515.396 293.94 515.61 293.926 515.827 293.907C515.893 293.901 516.488 293.854 517.157 293.717L513.132 274.126C513.243 274.104 513.337 274.086 513.413 274.073C513.49 274.059 513.558 274.048 513.613 274.04C513.668 274.032 513.717 274.025 513.758 274.019C513.798 274.014 513.834 274.009 513.864 274.006C513.922 273.999 513.969 273.994 513.999 273.991C514.03 273.988 514.053 273.986 514.066 273.984C514.09 273.982 514.095 273.982 514.076 273.983C514.059 273.985 514.029 273.987 513.985 273.989C513.942 273.992 513.89 273.995 513.829 273.999C513.767 274.002 513.699 274.006 513.624 274.01C513.471 274.018 513.302 274.027 513.11 274.036L514.127 294.01ZM511.843 294.153C512.359 294.103 513.173 294.059 514.127 294.01L513.11 274.036C512.311 274.077 510.976 274.143 509.893 274.249L511.843 294.153ZM500.943 282.98C501.281 280.23 502.992 277.934 505.357 276.774L514.17 294.727C517.724 292.983 520.287 289.532 520.793 285.422L500.943 282.98ZM519.654 284.216C519.636 284.129 519.625 284.077 519.615 284.03C519.607 283.986 519.603 283.968 519.603 283.965L499.924 287.536C499.983 287.859 500.046 288.159 500.076 288.304L519.654 284.216ZM519.733 284.601C519.703 284.45 519.672 284.305 519.654 284.217L500.076 288.304C500.098 288.411 500.108 288.456 500.114 288.489L519.733 284.601ZM519.88 285.45C519.829 285.099 519.771 284.794 519.732 284.598L500.115 288.492C500.118 288.509 500.117 288.501 500.113 288.478C500.108 288.455 500.099 288.402 500.088 288.327L519.88 285.45ZM519.912 294.909C520.749 290.933 520.137 287.212 519.88 285.449L500.088 288.328C500.237 289.347 500.308 289.913 500.333 290.386C500.355 290.808 500.319 290.891 500.341 290.789L519.912 294.909ZM498.984 313.499C509.68 312.651 517.818 304.854 519.912 294.909L500.341 290.789C499.972 292.541 498.774 293.453 497.402 293.562L498.984 313.499ZM489.005 311.462C492.445 313.347 496.154 313.724 498.984 313.499L497.402 293.562C497.5 293.554 497.587 293.556 497.706 293.578C497.817 293.597 498.151 293.668 498.618 293.924L489.005 311.462ZM503.725 304.006L503.73 303.969L483.893 301.417L483.889 301.454L503.725 304.006ZM490.287 314.375C496.86 315.223 502.877 310.582 503.725 304.009L483.889 301.45C484.454 297.068 488.465 293.974 492.847 294.54L490.287 314.375ZM489.137 314.169C489.518 314.257 489.902 314.325 490.287 314.375L492.847 294.54C493.101 294.572 493.356 294.618 493.611 294.676L489.137 314.169ZM493.508 318.83C497.228 315.787 500.174 311.692 501.199 306.284L481.548 302.561C481.542 302.594 481.537 302.614 481.534 302.626C481.53 302.637 481.528 302.642 481.528 302.644C481.527 302.646 481.526 302.649 481.524 302.653C481.522 302.657 481.516 302.667 481.506 302.683C481.472 302.736 481.313 302.967 480.843 303.351L493.508 318.83ZM476.856 324.897C482.58 324.616 488.043 323.302 493.508 318.83L480.843 303.351C479.598 304.37 478.665 304.784 475.873 304.921L476.856 324.897ZM472.781 324.954C474.251 325 475.643 324.957 476.856 324.897L475.873 304.921C474.916 304.969 474.117 304.986 473.403 304.964L472.781 324.954ZM486.448 314.883C484.456 311.871 482.006 309.321 479.406 307.205L466.778 322.714C468.074 323.769 469.066 324.856 469.767 325.916L486.448 314.883ZM496.272 348.116C497.425 335.516 492.155 323.511 486.448 314.883L469.767 325.916C474.263 332.713 476.921 340.111 476.356 346.294L496.272 348.116ZM476.783 377.879C485.599 371.822 494.998 362.049 496.272 348.115L476.356 346.294C475.862 351.692 472.051 356.864 465.458 361.394L476.783 377.879ZM445.301 385.725C456.233 387.373 468.557 383.53 476.783 377.879L465.458 361.394C460.568 364.754 453.273 366.701 448.283 365.948L445.301 385.725ZM435.895 383.343C438.351 384.107 441.77 385.192 445.301 385.725L448.283 365.948C446.524 365.683 444.583 365.1 441.838 364.246L435.895 383.343ZM436.44 383.496H436.441L441.292 364.093L436.44 383.496ZM434.114 382.794C434.681 382.965 435.26 383.145 435.894 383.342L441.837 364.246C441.218 364.053 440.554 363.846 439.889 363.646L434.114 382.794ZM421.206 376.273C425.536 380.324 431.553 382.022 434.114 382.794L439.889 363.646C438.396 363.195 437.222 362.818 436.219 362.387C435.188 361.944 434.859 361.658 434.87 361.668L421.206 376.273ZM409.984 357.458C411.725 364.768 416.186 371.577 421.206 376.273L434.87 361.668C432.237 359.205 430.13 355.719 429.44 352.823L409.984 357.458ZM409.525 354.56C409.592 355.066 409.777 356.586 409.984 357.458L429.44 352.823C429.489 353.032 429.518 353.184 429.525 353.223C429.535 353.279 429.54 353.309 429.539 353.301C429.536 353.282 429.525 353.216 429.506 353.08C429.468 352.808 429.419 352.438 429.353 351.938L409.525 354.56ZM409.505 354.393V354.395L429.373 352.103V352.1L409.505 354.393ZM409.539 354.66V354.661L429.338 351.832L409.539 354.66ZM409.737 355.671L429.14 350.821V350.82L409.737 355.671ZM417.864 353.668C414.796 353.854 412.508 352.597 411.257 351.616C410.086 350.698 409.431 349.74 409.16 349.315C408.847 348.824 408.667 348.428 408.587 348.245C408.499 348.042 408.452 347.905 408.439 347.866C408.43 347.837 408.533 348.182 408.702 349.071C409.016 350.728 409.298 352.842 409.525 354.556L429.352 351.936C429.142 350.345 428.789 347.652 428.351 345.341C428.143 344.247 427.84 342.818 427.405 341.518C427.214 340.946 426.799 339.781 426.033 338.577C425.652 337.978 424.885 336.887 423.602 335.881C422.239 334.812 419.838 333.512 416.656 333.705L417.864 353.668ZM420.479 353.108C420.671 352.988 420.751 352.938 420.813 352.901C420.87 352.867 420.82 352.9 420.699 352.96C420.583 353.017 420.298 353.153 419.881 353.29C419.47 353.425 418.773 353.613 417.864 353.668L416.656 333.705C414.344 333.845 412.57 334.665 411.787 335.055C410.92 335.487 410.138 335.986 409.877 336.149L420.479 353.108ZM417.666 354.591C419.054 354.04 420.314 353.211 420.479 353.107L409.877 336.149C409.763 336.22 409.695 336.262 409.635 336.299C409.578 336.334 409.563 336.343 409.573 336.337C409.583 336.331 409.647 336.295 409.752 336.242C409.854 336.19 410.038 336.101 410.287 336.002L417.666 354.591ZM411.381 356.165C412.635 355.963 415.129 355.598 417.666 354.591L410.286 336.003C410.26 336.013 410.122 336.065 409.771 336.141C409.385 336.226 408.948 336.299 408.189 336.422L411.381 356.165ZM411.091 356.212L411.384 356.165L408.186 336.422L407.893 336.47L411.091 356.212ZM410.966 356.233L411.104 356.21L407.879 336.472L407.741 336.494L410.966 356.233ZM409.066 356.578C409.802 356.438 410.396 356.326 410.972 356.232L407.736 336.495C406.874 336.637 406.036 336.796 405.34 336.928L409.066 356.578ZM410.365 356.24L404.041 337.266H404.04L410.365 356.24ZM409.163 356.559H409.164L405.242 336.947H405.241L409.163 356.559ZM397.633 357.215C402.342 357.948 406.686 357.029 409.065 356.578L405.34 336.928C402.409 337.484 401.456 337.569 400.708 337.453L397.633 357.215ZM385.078 349.838C387.247 352.2 391.164 356.209 397.633 357.215L400.708 337.453C400.795 337.467 400.911 337.497 401.025 337.545C401.133 337.59 401.172 337.622 401.13 337.593C401.08 337.558 400.949 337.461 400.719 337.246C400.485 337.027 400.197 336.734 399.81 336.311L385.078 349.838ZM378.125 340.434C380.069 343.84 382.356 346.874 385.078 349.838L399.81 336.311C397.945 334.28 396.592 332.443 395.497 330.523L378.125 340.434ZM300.765 309.162C307.849 322.298 318.4 335.029 333.452 342.576C348.749 350.245 367.558 351.986 389.799 345.022L383.823 325.935C365.828 331.57 352.46 329.733 342.416 324.697C332.129 319.539 324.176 310.439 318.369 299.669L300.765 309.162ZM276.282 319.716C288.678 319.189 300.718 317.25 312.241 314.052L306.893 294.78C296.824 297.574 286.293 299.273 275.433 299.734L276.282 319.716ZM274.783 342.395C277.358 332.396 280.675 322.62 284.837 314.125L266.878 305.325C261.945 315.392 258.215 326.536 255.415 337.407L274.783 342.395ZM273.822 333.878C272.749 333.017 271.651 332.231 270.542 331.512L259.656 348.29C260.246 348.673 260.795 349.068 261.303 349.476L273.822 333.878ZM280.268 370.405C283.454 367.219 285.503 363.38 286.166 359.123C286.811 354.981 286.038 351.153 284.786 347.99C282.378 341.908 277.721 337.008 273.822 333.878L261.303 349.476C263.726 351.42 265.536 353.698 266.19 355.351C266.469 356.056 266.375 356.234 266.404 356.045C266.452 355.74 266.59 355.799 266.126 356.263L280.268 370.405ZM266.482 377.693C270.51 377.476 273.832 375.444 275.418 374.386C277.374 373.081 279.095 371.578 280.268 370.405L266.126 356.262C265.949 356.44 265.668 356.702 265.321 356.991C264.975 357.28 264.628 357.542 264.318 357.749C263.988 357.969 263.829 358.041 263.849 358.032C263.869 358.023 263.998 357.968 264.225 357.905C264.447 357.844 264.851 357.752 265.403 357.723L266.482 377.693ZM266.352 377.7L266.454 377.695L265.43 357.721L265.328 357.726L266.352 377.7ZM274.646 368.518C274.646 369.692 274.399 371.478 273.274 373.312C272.116 375.2 270.531 376.318 269.225 376.922C268.05 377.466 267.07 377.613 266.728 377.659C266.383 377.705 266.105 377.712 266.335 377.701L265.345 357.726C265.283 357.729 264.711 357.751 264.087 357.834C263.467 357.917 262.225 358.124 260.824 358.772C259.293 359.481 257.519 360.748 256.227 362.852C254.97 364.902 254.646 366.971 254.646 368.518H274.646ZM271.569 376.415C271.747 376.176 272.287 375.465 272.764 374.698C273.009 374.306 273.383 373.671 273.723 372.885C273.991 372.263 274.646 370.646 274.646 368.518H254.646C254.646 367.479 254.817 366.654 254.952 366.144C255.092 365.615 255.252 365.209 255.362 364.955C255.57 364.472 255.76 364.169 255.791 364.119C255.842 364.037 255.838 364.054 255.548 364.443L271.569 376.415ZM271.614 376.32C271.572 376.388 271.537 376.442 271.51 376.482C271.484 376.522 271.462 376.553 271.448 376.574C271.433 376.596 271.423 376.611 271.417 376.618C271.412 376.625 271.41 376.628 271.412 376.625C271.418 376.617 271.432 376.598 271.461 376.559C271.49 376.52 271.523 376.476 271.569 376.415L255.548 364.443C255.489 364.521 255.022 365.131 254.654 365.72L271.614 376.32ZM269.354 382.528C269.729 379.989 270.296 378.429 271.614 376.32L254.654 365.72C251.823 370.251 250.332 374.44 249.569 379.603L269.354 382.528ZM269.014 396.348C268.86 390.957 268.761 386.542 269.354 382.528L249.569 379.603C248.674 385.662 248.878 391.875 249.022 396.919L269.014 396.348ZM269.018 396.634V396.633H249.018V396.634H269.018ZM269.018 396.635V396.634H249.018V396.635H269.018ZM269.018 396.637V396.635H249.018V396.637H269.018ZM269.018 396.638V396.637H249.018V396.638H269.018ZM269.018 396.639V396.638H249.018V396.639H269.018ZM269.138 402.884C269.138 400.667 269.073 398.433 269.014 396.354L249.022 396.925C249.083 399.056 249.138 401.002 249.138 402.884H269.138ZM269.187 405.104C269.159 404.215 269.138 403.526 269.138 402.884H249.138C249.138 403.9 249.171 404.912 249.197 405.741L269.187 405.104ZM269.187 405.091L269.186 405.09L249.198 405.756L269.187 405.091ZM268.496 415.249C269.449 411.317 269.258 407.327 269.187 405.106L249.197 405.743C249.286 408.53 249.259 409.711 249.059 410.537L268.496 415.249ZM264.745 424.537C265.667 422.672 267.631 418.816 268.496 415.249L249.059 410.537C248.829 411.484 248.06 413.159 246.816 415.674L264.745 424.537ZM264.539 424.954L264.747 424.534L246.815 415.678L246.607 416.098L264.539 424.954ZM245.934 444.069C255.052 439.553 260.38 433.388 264.542 424.949L246.604 416.103C244.045 421.293 241.603 423.895 237.057 426.147L245.934 444.069ZM212.694 445.968C222.056 448.763 235.68 449.148 245.934 444.069L237.057 426.147C232.586 428.362 224.454 428.607 218.415 426.804L212.694 445.968ZM182.98 416.096C187.31 431.01 197.774 441.514 212.694 445.968L218.415 426.804C209.97 424.283 204.612 418.871 202.187 410.519L182.98 416.096ZM182.522 414.218C182.623 414.655 182.833 415.587 182.98 416.096L202.187 410.519C202.218 410.625 202.237 410.699 202.241 410.713C202.247 410.736 202.249 410.744 202.245 410.73C202.238 410.701 202.224 410.643 202.2 410.543C202.153 410.342 202.091 410.074 202.011 409.726L182.522 414.218ZM182.565 414.397L201.968 409.547V409.546L182.565 414.397ZM195.9 413.471C193.911 414.817 191.398 415.459 188.824 415.066C186.549 414.719 184.978 413.682 184.176 413.049C182.702 411.886 181.969 410.603 181.839 410.38C181.581 409.942 181.43 409.598 181.377 409.475C181.311 409.323 181.275 409.223 181.268 409.204C181.257 409.172 181.281 409.237 181.34 409.439C181.396 409.626 181.464 409.869 181.543 410.165C181.871 411.4 182.238 412.984 182.522 414.218L202.011 409.725C201.744 408.566 201.301 406.641 200.87 405.023C200.668 404.262 200.394 403.284 200.082 402.419C199.966 402.096 199.639 401.196 199.081 400.247C198.887 399.916 198.095 398.556 196.566 397.349C195.737 396.695 194.141 395.646 191.841 395.295C189.242 394.898 186.705 395.545 184.695 396.905L195.9 413.471ZM194.895 414.168C195.271 413.905 195.582 413.687 195.9 413.471L184.694 396.906C184.211 397.233 183.762 397.548 183.404 397.799L194.895 414.168ZM182.83 418.811C188.949 418.489 192.708 415.704 194.895 414.169L183.404 397.799C182.841 398.195 182.511 398.424 182.214 398.615C181.946 398.787 181.827 398.846 181.797 398.86C181.784 398.866 181.822 398.848 181.881 398.833C181.937 398.819 181.917 398.831 181.779 398.839L182.83 418.811ZM141.578 382.282C144.486 401.628 159.44 420.042 182.83 418.811L181.779 398.839C171.565 399.376 163.206 391.614 161.356 379.309L141.578 382.282ZM158.568 333.182C144.534 345.747 138.921 364.607 141.578 382.282L161.356 379.309C159.589 367.555 163.427 355.677 171.909 348.083L158.568 333.182ZM193.309 322.834C182.126 321.715 168.141 324.613 158.568 333.182L171.909 348.083C176.291 344.16 184.217 342.024 191.319 342.734L193.309 322.834ZM219.061 334.478C212.919 329.684 203.392 323.842 193.309 322.834L191.319 342.734C195.758 343.178 201.625 346.24 206.755 350.244L219.061 334.478ZM227.763 344.529C225.529 340.658 222.703 337.321 219.061 334.478L206.755 350.244C208.269 351.426 209.426 352.768 210.439 354.523L227.763 344.529ZM227.787 344.571L227.765 344.533L210.436 354.519L210.458 354.556L227.787 344.571ZM212.843 343.539C212.928 343.436 213.781 342.367 215.389 341.512C216.307 341.024 217.639 340.515 219.305 340.416C221.034 340.313 222.637 340.681 223.981 341.312C226.305 342.401 227.449 344.088 227.579 344.271C227.822 344.611 227.981 344.907 227.786 344.569L210.459 354.559C210.495 354.62 210.857 355.269 211.297 355.886C211.626 356.346 212.961 358.234 215.492 359.421C218.893 361.015 222.336 360.469 224.776 359.172C226.645 358.179 227.796 356.838 228.239 356.305L212.843 343.539ZM218.751 336.928C216.719 339.043 214.759 341.229 212.843 343.539L228.239 356.305C229.829 354.387 231.463 352.564 233.173 350.784L218.751 336.928ZM217.391 347.123C217.578 347.399 217.492 347.281 217.386 347.095C217.274 346.9 216.881 346.198 216.616 345.148C216.323 343.983 216.188 342.389 216.674 340.624C217.15 338.893 218.038 337.67 218.751 336.928L233.173 350.784C234.265 349.648 235.377 348.04 235.958 345.927C236.548 343.78 236.4 341.808 236.01 340.262C235.65 338.831 235.079 337.746 234.743 337.16C234.413 336.582 234.058 336.066 233.965 335.928L217.391 347.123ZM214.79 339.55C214.851 343.836 217.283 346.963 217.391 347.123L233.965 335.928C233.689 335.52 233.891 335.788 234.09 336.201C234.339 336.717 234.768 337.797 234.789 339.268L214.79 339.55ZM223.705 323.627C220.238 325.239 217.29 327.913 215.809 331.93C214.656 335.057 214.772 338.261 214.79 339.55L234.789 339.268C234.777 338.478 234.786 338.16 234.799 338C234.809 337.869 234.797 338.245 234.575 338.848C234.319 339.54 233.881 340.282 233.259 340.913C232.682 341.499 232.2 341.733 232.139 341.761L223.705 323.627ZM248.062 322.424C241.311 320.653 232.351 319.605 223.705 323.627L232.139 341.761C234.648 340.594 238.16 340.503 242.985 341.77L248.062 322.424ZM244.036 305.202C241.315 311.812 238.384 320.122 235.866 329.504L255.182 334.69C257.467 326.177 260.117 318.677 262.531 312.815L244.036 305.202ZM113.769 197.001C129.21 262.048 184.355 311.708 252.222 318.952L254.345 299.065C195.013 292.732 146.736 249.281 133.228 192.382L113.769 197.001ZM81.006 180.944C93.891 191.243 107.543 198.705 119.542 203.875L127.456 185.508C116.754 180.896 104.719 174.294 93.4932 165.321L81.006 180.944ZM92.5371 182.121C93.3484 181.31 94.1093 180.491 94.8254 179.66L79.6738 166.605C79.2933 167.047 78.8704 167.503 78.395 167.979L92.5371 182.121ZM61.5779 186.189C67.2705 190.189 73.8599 190.369 78.9147 189.314C83.9764 188.258 88.9537 185.704 92.5371 182.121L78.395 167.979C78.1601 168.214 77.6953 168.584 76.9944 168.952C76.3059 169.313 75.5507 169.586 74.8293 169.736C73.2166 170.073 72.8216 169.646 73.0763 169.825L61.5779 186.189ZM62.9982 188.424C64.6195 188.354 66.6679 188.225 68.8437 187.892L65.8105 168.123C64.6816 168.296 63.4609 168.385 62.1295 168.443L62.9982 188.424ZM50.6046 178.182C51.4891 184.204 56.7895 188.694 62.9982 188.424L62.1295 168.443C66.2707 168.263 69.8021 171.257 70.3923 175.275L50.6046 178.182ZM60.2036 187.257C61.4684 186.83 62.1539 186.608 62.7285 186.477L58.2685 166.98C56.5394 167.376 54.8835 167.944 53.8101 168.306L60.2036 187.257ZM54.3034 188.866C56.665 188.476 58.914 187.692 60.2036 187.257L53.8101 168.306C52.1795 168.856 51.5134 169.056 51.0449 169.133L54.3034 188.866ZM24.8016 181.151C31.4564 185.169 42.8787 190.753 54.3034 188.866L51.0449 169.133C47.221 169.765 41.264 167.728 35.139 164.029L24.8016 181.151ZM13.3636 119.425C6.57119 123.67 2.22386 129.575 0.651934 136.55C-0.852771 143.228 0.426962 149.79 2.65789 155.322C7.02646 166.155 16.1852 175.948 24.8016 181.151L35.139 164.029C29.8536 160.838 23.7968 154.265 21.2065 147.842C19.958 144.746 19.8224 142.457 20.1627 140.947C20.4358 139.735 21.1938 138.116 23.9634 136.385L13.3636 119.425ZM13.1945 119.533C13.2531 119.495 13.3098 119.458 13.3636 119.425L23.9638 136.384C24.0561 136.327 24.15 136.266 24.2453 136.203L13.1945 119.533ZM9.33133 131.347C9.48027 131.725 9.64786 132.095 9.83311 132.454L27.6067 123.283C27.73 123.522 27.8411 123.767 27.9395 124.017L9.33133 131.347ZM12.3502 118.137C8.83547 121.386 7.45852 126.593 9.33133 131.347L27.9395 124.017C29.1899 127.191 28.2656 130.66 25.927 132.823L12.3502 118.137ZM9.65162 128.672C9.72393 128.855 9.74677 128.914 9.761 128.953L28.5161 122.007C28.4142 121.731 28.3102 121.469 28.2531 121.325L9.65162 128.672ZM8.69457 125.678C9.00756 127.099 9.51542 128.327 9.65162 128.672L28.2531 121.325C28.2293 121.265 28.2108 121.218 28.1931 121.172C28.1759 121.128 28.1623 121.094 28.1511 121.064C28.14 121.035 28.1322 121.015 28.1269 121C28.1216 120.986 28.1195 120.98 28.1198 120.981C28.1198 120.981 28.1323 121.016 28.1509 121.079C28.1695 121.143 28.1972 121.243 28.2261 121.375L8.69457 125.678ZM9.25452 108.562C6.33475 115.445 7.95536 122.323 8.69457 125.678L28.2261 121.375C27.8277 119.566 27.6243 118.425 27.5798 117.491C27.5401 116.658 27.656 116.397 27.6662 116.373L9.25452 108.562ZM15.1191 99.4439C11.8498 102.554 10.1325 106.493 9.25452 108.562L27.6662 116.373C28.0442 115.482 28.3365 114.867 28.6054 114.402C28.8733 113.939 28.9899 113.853 28.903 113.935L15.1191 99.4439ZM12.1635 108.646C12.3334 109.364 12.5676 110.059 12.8609 110.724L31.1611 102.655C31.3572 103.1 31.5128 103.562 31.6251 104.037L12.1635 108.646ZM21.0749 94.2036C14.626 95.731 10.6361 102.197 12.1635 108.646L31.6251 104.037C32.6434 108.336 29.9835 112.647 25.6842 113.665L21.0749 94.2036ZM24.9229 93.3663C23.5957 93.6259 22.3087 93.9114 21.0749 94.2036L25.6842 113.665C26.7286 113.418 27.7517 113.192 28.7617 112.994L24.9229 93.3663ZM16.8897 102.22C16.8889 102.238 16.8902 102.2 16.8989 102.118L36.7857 104.243C36.8257 103.868 36.851 103.508 36.8671 103.171L16.8897 102.22ZM16.932 98.762C16.9379 100.08 16.9407 101.15 16.8897 102.22L36.8671 103.171C36.9466 101.5 36.9374 99.9205 36.9318 98.6718L16.932 98.762ZM25.3021 77.193C21.2711 80.5854 18.9434 84.5451 17.8294 88.8297C16.8444 92.6182 16.9214 96.418 16.932 98.762L36.9318 98.6718C36.9256 97.2996 36.9247 96.3491 36.9743 95.486C37.0216 94.6648 37.1047 94.1743 37.1858 93.8624C37.2571 93.5884 37.33 93.439 37.4058 93.3183C37.4848 93.1926 37.6841 92.9126 38.1802 92.4951L25.3021 77.193ZM46.7233 69.7452C38.4573 69.1329 30.0898 73.1637 25.3021 77.193L38.1802 92.4951C38.9673 91.8326 40.3096 91.0021 41.8838 90.397C43.5008 89.7755 44.6867 89.6492 45.2459 89.6906L46.7233 69.7452ZM62.3011 74.139C57.3702 71.5239 51.9717 70.134 46.7233 69.7452L45.2459 89.6906C48.0608 89.8991 50.7186 90.6349 52.9306 91.808L62.3011 74.139ZM63.0394 74.5365C62.8327 74.4243 62.5741 74.2838 62.3011 74.139L52.9306 91.808C53.102 91.8989 53.2754 91.993 53.494 92.1117L63.0394 74.5365ZM63.0369 74.5352L63.0325 74.5328L53.5009 92.1154L53.5052 92.1178L63.0369 74.5352ZM63.0608 74.5482L63.0596 74.5475L53.4825 92.1054L53.4838 92.1061L63.0608 74.5482ZM64.0582 75.0691C63.8661 74.9812 63.6392 74.8623 63.0451 74.5397L53.4996 92.1147C53.9968 92.3848 54.8182 92.8353 55.7335 93.2543L64.0582 75.0691ZM51.3784 78.8911C51.1423 79.2933 50.9306 79.7076 50.7439 80.1314L69.0477 88.1919C68.9234 88.4743 68.7828 88.7492 68.6268 89.015L51.3784 78.8911ZM67.8018 74.6165C62.0862 71.2617 54.7332 73.1755 51.3784 78.8911L68.6268 89.015C66.3903 92.8254 61.4882 94.1014 57.6778 91.8648L67.8018 74.6165ZM68.8052 75.2214C68.4321 74.9919 68.0875 74.7842 67.8018 74.6165L57.6778 91.8648C57.8154 91.9456 58.0384 92.0794 58.3277 92.2573L68.8052 75.2214ZM54.9835 77.2552C54.859 78.0091 54.7613 78.58 54.644 79.0809C54.5891 79.3156 54.551 79.4402 54.5387 79.4772C54.5198 79.5342 54.5756 79.3456 54.7521 79.0162L72.3807 88.4625C73.3564 86.6416 73.8542 84.7643 74.1174 83.6406C74.4087 82.3963 74.6047 81.1894 74.7162 80.5141L54.9835 77.2552ZM55.4482 74.9578C55.1978 75.8635 55.0248 77.0053 54.9835 77.2552L74.7162 80.5141C74.7398 80.3711 74.7587 80.2564 74.7763 80.1522C74.7938 80.0484 74.8062 79.9776 74.8151 79.9285C74.8246 79.8765 74.8249 79.8781 74.8171 79.9148C74.8128 79.9353 74.804 79.9762 74.7906 80.0329C74.7775 80.0882 74.7559 80.1756 74.7253 80.2864L55.4482 74.9578ZM92.0013 45.2064C76.4348 46.9536 60.0846 58.1847 55.4482 74.9578L74.7253 80.2864C76.8057 72.76 85.2734 66.0871 94.2322 65.0815L92.0013 45.2064ZM121.98 57.4484C114.694 46.7797 101.534 44.1364 92.0013 45.2064L94.2322 65.0815C99.5559 64.484 103.88 66.4094 105.464 68.7277L121.98 57.4484ZM122.196 87.866C126.893 82.5343 127.348 75.7551 126.838 71.0482C126.308 66.1579 124.528 61.1795 121.98 57.4484L105.464 68.7277C105.675 69.0369 106.014 69.6552 106.332 70.5447C106.643 71.4147 106.861 72.3424 106.954 73.2022C107.049 74.0807 106.992 74.6714 106.927 74.9664C106.868 75.2399 106.86 75.0179 107.188 74.6453L122.196 87.866ZM116.395 92.4384C117.409 91.8191 120.059 90.2911 122.196 87.866L107.188 74.6453C107.368 74.442 107.445 74.4151 107.228 74.5705C107.124 74.6446 106.978 74.7432 106.762 74.8805C106.538 75.023 106.298 75.1699 105.969 75.3714L116.395 92.4384ZM115.129 93.2469C115.34 93.091 115.638 92.9013 116.395 92.4384L105.969 75.3714C105.353 75.7476 104.284 76.3925 103.241 77.1634L115.129 93.2469ZM109.169 98.7209C111.114 96.6181 113.149 94.7106 115.129 93.2469L103.241 77.1634C99.9549 79.5927 96.9872 82.4373 94.4872 85.1401L109.169 98.7209ZM104.801 107.243C105.025 104.381 106.192 101.94 109.169 98.7209L94.4872 85.1401C89.6235 90.3982 85.5502 96.8802 84.8623 105.686L104.801 107.243ZM104.823 113.932C104.715 111.204 104.648 109.211 104.801 107.244L84.8623 105.686C84.6022 109.016 84.7382 112.174 84.8391 114.724L104.823 113.932ZM102.863 134.118C105.344 125.845 105.026 119.048 104.823 113.932L84.8391 114.724C85.0383 119.757 85.1413 123.585 83.7056 128.373L102.863 134.118ZM102.786 134.421C102.802 134.339 102.826 134.238 102.863 134.118L83.7056 128.373C83.4953 129.074 83.3172 129.783 83.1737 130.502L102.786 134.421ZM98.5322 123.953C97.2135 123.22 95.7944 122.756 94.353 122.556L91.6067 142.367C90.6409 142.233 89.6932 141.922 88.8195 141.436L98.5322 123.953ZM103.194 140.271C106.413 134.477 104.326 127.171 98.5322 123.953L88.8195 141.436C84.9572 139.29 83.5656 134.42 85.7113 130.558L103.194 140.271ZM100.24 144.327C101.52 142.997 102.469 141.578 103.194 140.271L85.7113 130.558C85.6499 130.668 85.6241 130.702 85.6382 130.682C85.6535 130.661 85.7152 130.577 85.8303 130.457L100.24 144.327ZM103.263 136.589C102.995 135.972 102.868 135.548 102.806 135.265L83.2641 139.519C83.6578 141.328 84.2446 143.002 84.9116 144.542L103.263 136.589ZM106.338 152.102C106.574 146.576 105.347 141.4 103.263 136.589L84.9116 144.542C86.0427 147.152 86.4389 149.311 86.3561 151.248L106.338 152.102ZM123.901 155.694C115.804 151.75 108.075 147.277 101.708 143.234L90.9859 160.117C97.8574 164.481 106.247 169.342 115.144 173.675L123.901 155.694ZM109.48 163.126C109.492 163.75 109.508 164.373 109.528 164.995L129.518 164.373C129.501 163.827 129.487 163.281 129.476 162.734L109.48 163.126ZM119.449 172.93H119.478V152.93H119.449V172.93ZM109.449 159.931V162.93H129.449V159.931H109.449ZM109.449 156.933V159.931H129.449V156.933H109.449ZM119.478 146.933H119.449V166.933H119.478V146.933ZM266.185 0.0313124C180.393 1.71434 111.163 70.9438 109.48 156.736L129.476 157.129C130.949 82.0745 191.523 21.4998 266.578 20.0275L266.185 0.0313124ZM256.381 10V10.0294H276.381V10H256.381ZM269.38 0H266.381V20H269.38V0ZM272.379 0H269.38V20H272.379V0ZM282.379 10.0294V10H262.379V10.0294H282.379ZM429.28 156.736C427.597 70.9438 358.367 1.71434 272.575 0.0313124L272.183 20.0275C347.237 21.4998 407.811 82.0745 409.284 157.129L429.28 156.736ZM419.311 146.933H419.282V166.933H419.311V146.933ZM429.311 159.931V156.933H409.311V159.931H429.311ZM429.311 162.93V159.931H409.311V162.93H429.311ZM419.282 172.93H419.311V152.93H419.282V172.93ZM400.241 209.606C387.043 244.353 360.386 272.497 326.643 287.65L334.836 305.895C373.398 288.577 403.847 256.437 418.937 216.708L400.241 209.606ZM439.318 223.601C433.423 217.265 425.217 210.495 414.504 204.449L404.674 221.866C413.645 226.93 420.218 232.434 424.677 237.226L439.318 223.601ZM436.364 239.585C436.649 239.356 436.822 239.218 436.982 239.099C437.053 239.046 437.096 239.016 437.113 239.005C437.132 238.992 437.101 239.013 437.026 239.057L426.969 221.77C425.534 222.605 424.247 223.665 423.836 223.995L436.364 239.585ZM435.776 240.052C435.996 239.881 436.225 239.697 436.365 239.585L423.836 223.995C423.653 224.142 423.587 224.195 423.551 224.223L435.776 240.052ZM435.403 240.925C435.388 241.066 435.375 241.05 435.427 240.892C435.476 240.743 435.555 240.551 435.663 240.35C435.771 240.147 435.873 240.001 435.937 239.921C436.008 239.832 435.971 239.901 435.776 240.052L423.551 224.223C421.055 226.15 419.245 228.643 418.031 230.909C416.809 233.192 415.816 235.947 415.513 238.831L435.403 240.925ZM437.576 243.751C436.15 242.735 435.653 242.092 435.494 241.823C435.434 241.721 435.418 241.666 435.407 241.616C435.395 241.561 435.357 241.355 435.403 240.925L415.513 238.831C415 243.704 416.004 248.14 418.261 251.973C420.395 255.596 423.35 258.173 425.972 260.041L437.576 243.751ZM440.856 253.578C440.856 256.412 439.375 258.894 437.192 260.301L426.356 243.491C423.069 245.61 420.856 249.333 420.856 253.578H440.856ZM432.856 245.578C437.275 245.578 440.856 249.16 440.856 253.578H420.856C420.856 260.206 426.229 265.578 432.856 265.578V245.578ZM434.211 245.638C433.659 245.586 433.181 245.578 432.856 245.578V265.578C432.85 265.578 432.799 265.578 432.717 265.575C432.634 265.572 432.503 265.566 432.337 265.55L434.211 245.638ZM436.891 266.8C437.75 265.387 438.836 264.06 440.027 262.969L426.521 248.219C423.896 250.622 421.617 253.426 419.804 256.406L436.891 266.8ZM433.895 275.511C434.191 272.555 435.254 269.491 436.891 266.8L419.804 256.406C416.742 261.44 414.612 267.35 413.994 273.521L433.895 275.511ZM419.007 288.22C420.952 286.348 423.559 284.904 426.318 284.231L421.572 264.802C415.43 266.302 409.663 269.455 405.14 273.808L419.007 288.22ZM417.278 297.333C417.183 296.19 417.352 293.843 417.985 291.355C418.285 290.179 418.626 289.221 418.94 288.547C419.298 287.779 419.407 287.835 419.007 288.22L405.14 273.808C401.379 277.426 399.531 282.776 398.603 286.422C397.578 290.451 397.021 295.089 397.348 299.001L417.278 297.333ZM402.985 307.186C403.046 307.212 403.108 307.24 403.173 307.27L411.454 289.065C411.323 289.005 411.19 288.945 411.055 288.886L402.985 307.186ZM393.089 308.42C393.453 307.707 394.268 306.868 396.304 306.455C398.462 306.017 401.034 306.325 402.985 307.186L411.055 288.886C405.432 286.406 398.658 285.57 392.327 286.854C385.874 288.164 379.057 291.915 375.273 299.331L393.089 308.42ZM391.578 318.224C391.246 314.286 391.838 310.873 393.089 308.42L375.273 299.331C371.897 305.95 371.095 313.321 371.648 319.9L391.578 318.224ZM321.782 301.219C329.06 315.881 339.351 324.724 351.144 328.732C362.653 332.644 374.448 331.567 384.412 328.662L378.813 309.461C371.431 311.614 364.044 311.993 357.58 309.796C351.4 307.696 344.928 302.865 339.697 292.326L321.782 301.219Z" fill="#FFFBFB"/>
<path d="M407.02 298.036C407.118 298.079 407.216 298.123 407.314 298.167C406.891 293.112 408.766 284.196 412.074 281.014C417.511 275.781 425.643 272.848 433.188 274.108C437.903 274.895 443.143 276.541 447.416 278.701C451.197 280.612 456.638 286.561 456.638 286.561C459.694 289.661 465.075 298.495 462.149 309.037C468.261 311.087 474.516 314.969 478.108 320.4C483.209 328.112 487.173 337.813 486.314 347.205C485.43 356.87 478.825 364.343 471.121 369.636C464.563 374.142 454.754 377.037 446.792 375.836C443.51 375.341 440.174 374.176 437.002 373.22C434.005 372.316 430.372 371.154 428.038 368.97C424.212 365.391 420.928 360.243 419.712 355.141C419.485 354.184 418.435 343.615 417.261 343.686C416.233 343.749 414.929 344.919 413.977 345.297C412.485 345.889 410.927 346.106 409.354 346.363C405.97 346.918 402.635 347.873 399.171 347.334C396.276 346.884 394.351 345.151 392.444 343.075C388.342 338.607 385.754 334.336 383.693 328.611C380.936 320.954 380.407 311.275 384.182 303.876C388.329 295.746 399.446 294.696 407.02 298.036Z" fill="#E7E2DE"/>
<path d="M420.768 307.094C419.418 306.466 418.233 304.953 417.013 304.104C413.915 301.949 410.478 299.56 407.02 298.036C399.446 294.696 388.329 295.746 384.182 303.876C380.407 311.275 380.936 320.954 383.693 328.611C385.754 334.336 388.342 338.607 392.444 343.075C394.351 345.151 396.276 346.884 399.171 347.334C402.635 347.873 405.97 346.918 409.354 346.363C410.927 346.106 412.485 345.889 413.977 345.297C414.929 344.919 416.233 343.749 417.261 343.686M417.261 343.686C418.435 343.615 419.485 354.184 419.712 355.141C420.928 360.243 424.212 365.391 428.038 368.97C430.372 371.154 434.005 372.316 437.002 373.22C440.174 374.176 443.51 375.341 446.792 375.836C454.754 377.037 464.563 374.142 471.121 369.636C478.825 364.343 485.43 356.87 486.314 347.205C487.173 337.813 483.209 328.112 478.108 320.4C474.516 314.969 468.261 311.087 462.149 309.037C465.075 298.495 459.694 289.661 456.638 286.561C456.638 286.561 451.197 280.612 447.416 278.701C443.143 276.541 437.903 274.895 433.188 274.108C425.643 272.848 417.511 275.781 412.074 281.014C408.766 284.196 406.891 293.112 407.314 298.167M417.261 343.686C420.853 342.412 428.038 337.613 428.038 328.611" stroke="#2E2D30" stroke-width="4" stroke-linecap="round"/>
<path d="M429.665 232.137C430.461 231.522 431.987 230.167 433.071 229.97C442.211 224.18 445.054 220.123 451.957 215.934C457.826 211.438 465.646 207.909 473.244 207.909C477.95 207.909 482.58 209.194 484.713 213.856C486.04 216.755 485.562 220.25 484.391 223.132C484.261 223.451 482.784 226.415 483.746 226.486C491.604 227.069 504.48 228.79 509.715 234.147C517.203 241.809 523.918 248.084 524.266 263.384C525.433 267.592 523.841 274.935 522.074 279.058C520.911 281.773 517.918 283.352 515.147 283.921C514.657 284.022 509.791 284.11 509.715 284.45C509.555 285.172 509.885 286.196 509.986 286.889C510.274 288.865 510.545 290.869 510.128 292.849C508.897 298.698 504.229 303.052 498.195 303.531C496.261 303.684 493.899 303.203 492.531 301.699C492.374 301.526 491.868 300.434 491.641 300.434C491.542 300.434 491.578 302.495 491.577 302.55C491.463 306.126 489.951 308.821 487.177 311.091C483.822 313.836 480.624 314.7 476.366 314.909C473.994 315.026 471.571 315.033 469.245 314.496C465.806 313.703 463.116 311.143 460.395 309.039C458.107 307.27 455.789 304.047 452.693 304.047C449.489 304.047 446.255 303.556 443.134 302.834C438.747 301.82 435.935 299.606 432.787 296.435C428.863 292.483 425.467 287.664 424.311 282.115C422.859 275.143 424.691 267.616 428.349 261.603C429.837 259.157 431.756 256.872 433.935 255.01C434.823 254.253 435.174 254.074 434.026 253.372C428.846 250.206 424.768 246.445 425.459 239.878C425.743 237.181 427.479 233.825 429.665 232.137Z" fill="#E7E2DE" stroke="#2E2D30" stroke-width="4" stroke-linecap="round"/>
<path d="M471.425 226.273C451.923 189.002 401.367 176.945 377.968 175.601C349.388 174.749 345.708 184.502 348.22 191.998C349.165 194.817 352.072 196.286 355.028 196.603C402.588 201.706 428.319 223.719 437.538 237.281C439.159 239.666 441.464 241.628 444.306 242.12C461.076 245.024 468.998 238.148 471.811 232.316C472.738 230.395 472.414 228.163 471.425 226.273Z" fill="#2E2D30"/>
<path d="M239.565 382.132C237.766 347.348 250.81 312.664 257.557 299.67C267.751 285.876 280.297 290.424 285.295 294.422C264.905 320.211 258.307 369.138 257.557 390.378L239.565 382.132Z" fill="#2E2D30"/>
<path d="M403.632 328.717C334.347 362.363 305.55 308.86 298.882 274.073C298.386 271.485 298.945 268.666 301.078 267.118C306.597 263.111 313.921 265.038 319.006 267.653C321.334 268.85 322.73 271.263 323.25 273.829C334.881 331.159 373.431 325.405 395.263 313.351C398.126 311.77 401.729 311.151 404.225 313.265C408.193 316.625 408.424 321.075 407.574 324.417C407.075 326.376 405.451 327.834 403.632 328.717Z" fill="#2E2D30"/>
<path d="M76.9547 164.019C97.8838 184.571 123.712 195.891 140.328 200.845C145.55 202.403 150.603 195.586 152.057 190.334C153.945 183.52 148.103 175.442 141.327 173.421C122.245 167.728 101.134 155.199 89.2238 146.96C87.3575 145.669 85.0938 144.874 82.894 145.432C75.154 147.394 73.9818 154.506 74.6227 159.637C74.8337 161.326 75.7402 162.827 76.9547 164.019Z" fill="#2E2D30"/>
<path d="M268.933 307.862C350.633 307.862 416.864 241.631 416.864 159.931C416.864 78.231 350.633 12 268.933 12C187.233 12 121.002 78.231 121.002 159.931C121.002 241.631 187.233 307.862 268.933 307.862Z" fill="#E7E2DE" stroke="#2E2D30" stroke-width="4"/>
<path d="M341.898 159.931C341.898 201.09 333.552 238.254 320.152 265.054C306.693 291.974 288.468 307.863 268.932 307.863C249.397 307.863 231.172 291.974 217.713 265.054C204.313 238.254 195.967 201.09 195.967 159.931C195.967 118.772 204.313 81.6083 217.713 54.8083C231.172 27.8887 249.397 12 268.932 12C288.468 12 306.693 27.8887 320.152 54.8083C333.552 81.6083 341.898 118.772 341.898 159.931Z" fill="#E7E2DE" stroke="#2E2D30" stroke-width="4"/>
<path d="M269.936 10H265.936V309.863H269.936V10Z" fill="#2E2D30"/>
<path d="M418.865 156.933H119.002V160.933H418.865V156.933Z" fill="#2E2D30"/>
<path d="M394.875 80.4678H142.99V84.4678H394.875V80.4678Z" fill="#2E2D30"/>
<path d="M395.555 233H141.555V237H395.555V233Z" fill="#2E2D30"/>
<path d="M291.331 218.318C292.496 225.653 290.096 231.947 284.73 236.914C279.294 241.946 270.737 245.668 259.631 247.432C248.526 249.196 238.265 248.464 230.564 245.454C222.906 242.461 217.937 237.307 216.802 230.157C216.22 226.497 217.014 224.892 218.116 224.004C219.453 222.927 221.844 222.362 225.618 222.192C228.053 222.083 230.784 222.138 233.831 222.2C235.436 222.232 237.129 222.266 238.912 222.279C243.999 222.316 249.641 222.17 255.471 221.244C261.305 220.318 266.489 218.743 270.985 217.18C272.775 216.558 274.417 215.954 275.941 215.393C278.329 214.513 280.426 213.741 282.344 213.178C285.532 212.241 287.419 212.159 288.598 212.721C289.608 213.202 290.724 214.499 291.331 218.318Z" fill="#2E2D30" stroke="#2E2D30" stroke-width="4"/>
<path d="M294.422 203.411C296.171 203.911 299.969 206.71 301.169 213.906" stroke="#2E2D30" stroke-width="4" stroke-linecap="round"/>
<path d="M227.923 332.694C224.865 334.116 224.746 336.22 224.791 339.408C224.818 341.32 227.288 342.477 225.963 343.856C224.092 345.803 222.295 347.808 220.542 349.922C219.827 350.784 219.585 350.364 219.124 349.563L219.102 349.526C217.479 346.712 215.487 344.373 212.909 342.361C207.273 337.962 199.576 333.51 192.315 332.784C183.173 331.87 172.217 334.386 165.24 340.633C153.982 350.711 149.256 366.081 151.468 380.795C153.847 396.621 165.504 409.709 182.306 408.825C185.855 408.638 187.583 407.025 190.299 405.188C190.749 404.884 192.381 412.603 192.585 413.307C195.962 424.941 203.873 432.899 215.556 436.386C223.256 438.685 234.134 438.755 241.497 435.108C248.329 431.724 252.214 427.34 255.574 420.526C256.683 418.278 258.196 415.297 258.779 412.893C259.554 409.697 259.139 406.128 259.139 402.884C259.139 395.754 258.418 388.136 259.463 381.065C260.032 377.214 261.061 374.34 263.135 371.02C263.474 370.478 264.648 369.143 264.648 368.518C264.648 367.728 265.332 367.741 265.944 367.708C268.325 367.579 271.611 364.92 273.199 363.333C280.498 356.034 273.886 346.751 267.564 341.677C261.98 337.195 254.777 334.937 248.042 332.826L247.906 332.784C241.48 330.77 234.274 329.74 227.923 332.694Z" fill="#E7E2DE" stroke="#2E2D30" stroke-width="4" stroke-linecap="round"/>
<path d="M169.178 353.033C174.809 353.033 179.998 354.01 185.314 356.357C190.154 358.494 194.511 361.8 198.085 365.682C202.826 370.832 203.509 376.361 204.937 382.954" stroke="#2E2D30" stroke-width="4" stroke-linecap="round"/>
<path d="M213.695 385.873C218.603 385.873 223.354 385.897 228.169 387.251C238.361 390.118 244.565 397.974 250.185 406.307" stroke="#2E2D30" stroke-width="4" stroke-linecap="round"/>
<path d="M158.639 377.068L174.044 360.379" stroke="#2E2D30" stroke-width="4" stroke-linecap="round"/>
<path d="M158.639 377.068L174.044 360.379" stroke="#2E2D30" stroke-width="4" stroke-linecap="round"/>
<path d="M158.639 377.068L174.044 360.379" stroke="#2E2D30" stroke-width="4" stroke-linecap="round"/>
<path d="M165.059 384.77L180.464 368.081" stroke="#2E2D30" stroke-width="4" stroke-linecap="round"/>
<path d="M165.059 384.77L180.464 368.081" stroke="#2E2D30" stroke-width="4" stroke-linecap="round"/>
<path d="M165.059 384.77L180.464 368.081" stroke="#2E2D30" stroke-width="4" stroke-linecap="round"/>
<path d="M170.193 391.189L185.598 374.5" stroke="#2E2D30" stroke-width="4" stroke-linecap="round"/>
<path d="M170.193 391.189L185.598 374.5" stroke="#2E2D30" stroke-width="4" stroke-linecap="round"/>
<path d="M170.193 391.189L185.598 374.5" stroke="#2E2D30" stroke-width="4" stroke-linecap="round"/>
<path d="M179.182 396.324L194.587 379.635" stroke="#2E2D30" stroke-width="4" stroke-linecap="round"/>
<path d="M179.182 396.324L194.587 379.635" stroke="#2E2D30" stroke-width="4" stroke-linecap="round"/>
<path d="M179.182 396.324L194.587 379.635" stroke="#2E2D30" stroke-width="4" stroke-linecap="round"/>
<path d="M203.572 413.012L218.977 396.323" stroke="#2E2D30" stroke-width="4" stroke-linecap="round"/>
<path d="M203.572 413.012L218.977 396.323" stroke="#2E2D30" stroke-width="4" stroke-linecap="round"/>
<path d="M203.572 413.012L218.977 396.323" stroke="#2E2D30" stroke-width="4" stroke-linecap="round"/>
<path d="M224.111 428.417L239.516 411.729" stroke="#2E2D30" stroke-width="4" stroke-linecap="round"/>
<path d="M224.111 428.417L239.516 411.729" stroke="#2E2D30" stroke-width="4" stroke-linecap="round"/>
<path d="M224.111 428.417L239.516 411.729" stroke="#2E2D30" stroke-width="4" stroke-linecap="round"/>
<path d="M216.41 423.283L231.815 406.594" stroke="#2E2D30" stroke-width="4" stroke-linecap="round"/>
<path d="M216.41 423.283L231.815 406.594" stroke="#2E2D30" stroke-width="4" stroke-linecap="round"/>
<path d="M216.41 423.283L231.815 406.594" stroke="#2E2D30" stroke-width="4" stroke-linecap="round"/>
<path d="M208.705 419.431L224.11 402.742" stroke="#2E2D30" stroke-width="4" stroke-linecap="round"/>
<path d="M208.705 419.431L224.11 402.742" stroke="#2E2D30" stroke-width="4" stroke-linecap="round"/>
<path d="M208.705 419.431L224.11 402.742" stroke="#2E2D30" stroke-width="4" stroke-linecap="round"/>
<path d="M94.8327 158.869C97.2155 152.572 96.7141 146.626 94.088 140.566C92.7261 137.423 92.3011 134.526 93.285 131.245C96.2617 121.319 94.2278 114.208 94.8327 106.465C95.2885 100.631 97.9083 96.1693 101.829 91.9307C104.052 89.5279 106.553 87.1518 109.186 85.2053C110.97 83.887 113.208 82.9417 114.693 81.2559C118.78 76.6164 116.806 67.6035 113.723 63.0883C109.288 56.5948 100.546 54.3104 93.1175 55.1442C80.8549 56.5206 68.446 65.4726 65.0876 77.6223C64.7241 78.937 64.2582 85.4331 61.8377 84.8443C60.1744 84.4397 59.0216 83.7188 57.6167 82.9737C54.0452 81.0796 50.017 80.0168 45.9854 79.7182C41.0484 79.3524 35.1674 81.9614 31.7419 84.8443C25.7006 89.9285 27.2111 95.7267 26.8792 102.696C26.7561 105.281 25.8701 104.435 24.0356 105.291C21.1747 106.626 19.6377 109.695 18.4612 112.468C16.9472 116.037 17.6572 119.878 18.4612 123.527C18.8588 125.331 20.2734 126.899 18.6643 127.905C-0.459484 139.857 16.0692 164.197 29.9711 172.59C36.361 176.448 45.0506 180.259 52.6749 179C57.4668 178.208 62.7459 174.458 66.9607 177.736C72.3744 181.947 81.2018 179.315 85.4668 175.05C90.4921 170.025 92.3791 165.353 94.8327 158.869Z" fill="#E7E2DE" stroke="#2E2D30" stroke-width="4" stroke-linecap="round"/>
<path d="M20.498 126.949C24.8408 125.238 29.0804 125.456 33.6662 125.456C38.0493 125.456 42.9992 125.666 46.8098 128.124C50.5899 130.563 52.8959 134.099 55.5968 137.572C57.8559 140.476 59.1618 147.72 56.8206 150.814C53.2378 155.548 49.8366 155.828 44.3867 156.737" stroke="#2E2D30" stroke-width="4" stroke-linecap="round"/>
<path d="M23.8418 105.881C29.3598 104.574 35.032 103.663 40.7239 104.496C45.1977 105.15 49.6737 106.922 53.748 108.794C56.7949 110.194 59.2847 112.849 60.8426 115.798C62.4488 118.838 63.7641 121.76 63.9238 125.275C64.0636 128.35 64.3501 131.465 64.1439 134.557C64.0246 136.347 61.9279 140.603 59.7292 140.603" stroke="#2E2D30" stroke-width="4" stroke-linecap="round"/>
<path d="M61.7285 84.9658C62.9588 85.688 66.8994 88.151 67.8321 89.2321C70.5522 92.385 72.2689 95.3111 73.1012 99.4727C73.46 101.267 73.2436 103.257 73.2436 105.078C73.2436 108.126 72.8255 111.366 71.5088 114.154C70.4765 116.34 69.1715 118.23 67.3142 119.734C66.844 120.114 65.9696 120.246 65.7865 120.795" stroke="#2E2D30" stroke-width="4" stroke-linecap="round"/>
<path d="M62.4785 176.436C65.4757 176.306 68.8257 175.993 71.5992 174.794C75.3349 173.18 77.017 169.595 78.2391 165.929" stroke="#2E2D30" stroke-width="4" stroke-linecap="round"/>
<path d="M86.4668 137.398C89.5806 137.398 91.1402 137.26 92.7054 134.443" stroke="#2E2D30" stroke-width="4" stroke-linecap="round"/>
<path d="M432.857 253.578C434.44 253.578 434.964 254.103 436.328 254.723C437.961 255.465 439.147 255.815 441.015 255.832C443.912 255.858 446.77 255.188 449.601 255.188" stroke="#2E2D30" stroke-width="4" stroke-linecap="round"/>
<path d="M483.74 225.901C483.977 227.616 483.812 228.968 483.138 230.59C481.739 233.952 479.888 236.967 477.787 239.933" stroke="#2E2D30" stroke-width="4" stroke-linecap="round"/>
<path d="M447.639 285.877C449.738 289.429 452.751 292.267 454.591 296.04C455.791 298.499 456.884 301.904 456.884 304.698" stroke="#2E2D30" stroke-width="4" stroke-linecap="round"/>
<path d="M491.823 302.474C492.074 300.531 492.149 298.467 491.937 296.519C491.575 293.179 490.007 290.178 488.281 287.373" stroke="#2E2D30" stroke-width="4" stroke-linecap="round"/>
<path d="M508.884 283.954C508.792 280.654 508.31 277.997 506.273 275.378" stroke="#2E2D30" stroke-width="4" stroke-linecap="round"/>
<path d="M185.419 192.416C211.64 192.416 232.896 171.159 232.896 144.938C232.896 118.717 211.64 97.4609 185.419 97.4609C159.198 97.4609 137.941 118.717 137.941 144.938C137.941 171.159 159.198 192.416 185.419 192.416Z" fill="#FFFBFB" stroke="#2E2D30" stroke-width="4"/>
<mask id="mask0_1391_371" style="mask-type:alpha" maskUnits="userSpaceOnUse" x="135" y="95" width="100" height="100">
<path d="M185.419 192.416C211.64 192.416 232.896 171.159 232.896 144.938C232.896 118.717 211.64 97.4609 185.419 97.4609C159.198 97.4609 137.941 118.717 137.941 144.938C137.941 171.159 159.198 192.416 185.419 192.416Z" fill="#FFFBFB" stroke="#2E2D30" stroke-width="4"/>
</mask>
<g mask="url(#mask0_1391_371)">
<path d="M159.239 157.474C175.385 157.474 188.475 144.384 188.475 128.237C188.475 112.09 175.385 99.0005 159.239 99.0005C143.092 99.0005 130.002 112.09 130.002 128.237C130.002 144.384 143.092 157.474 159.239 157.474Z" fill="#2E2D30"/>
</g>
<mask id="mask1_1391_371" style="mask-type:luminance" maskUnits="userSpaceOnUse" x="135" y="145" width="100" height="49">
<path d="M234.896 145.978C234.896 152.279 233.616 158.517 231.13 164.338C228.643 170.159 224.999 175.448 220.405 179.904C215.81 184.359 210.356 187.893 204.353 190.304C198.35 192.715 191.916 193.956 185.419 193.956C178.921 193.956 172.487 192.715 166.485 190.304C160.482 187.893 155.027 184.359 150.433 179.904C145.839 175.448 142.194 170.159 139.708 164.338C137.221 158.517 135.941 152.279 135.941 145.978H185.419H234.896Z" fill="white"/>
</mask>
<g mask="url(#mask1_1391_371)">
<path d="M234.896 145.978C234.896 152.279 233.616 158.517 231.13 164.338C228.643 170.159 224.999 175.448 220.405 179.904C215.81 184.359 210.356 187.893 204.353 190.304C198.35 192.715 191.916 193.956 185.419 193.956C178.921 193.956 172.487 192.715 166.485 190.304C160.482 187.893 155.027 184.359 150.433 179.904C145.839 175.448 142.194 170.159 139.708 164.338C137.221 158.517 135.941 152.279 135.941 145.978H185.419H234.896Z" fill="#E7E2DE" stroke="#2E2D30" stroke-width="8"/>
</g>
<path d="M176.557 128.053C179.042 128.053 181.057 126.039 181.057 123.553C181.057 121.068 179.042 119.053 176.557 119.053C174.071 119.053 172.057 121.068 172.057 123.553C172.057 126.039 174.071 128.053 176.557 128.053Z" fill="#FFFBFB"/>
<path d="M182.057 132.053C183.161 132.053 184.057 131.158 184.057 130.053C184.057 128.949 183.161 128.053 182.057 128.053C180.952 128.053 180.057 128.949 180.057 130.053C180.057 131.158 180.952 132.053 182.057 132.053Z" fill="#FFFBFB"/>
<path d="M269.382 192.416C295.603 192.416 316.859 171.159 316.859 144.938C316.859 118.717 295.603 97.4609 269.382 97.4609C243.161 97.4609 221.904 118.717 221.904 144.938C221.904 171.159 243.161 192.416 269.382 192.416Z" fill="#FFFBFB" stroke="#2E2D30" stroke-width="4"/>
<mask id="mask2_1391_371" style="mask-type:alpha" maskUnits="userSpaceOnUse" x="219" y="95" width="100" height="100">
<path d="M269.382 192.416C295.603 192.416 316.859 171.159 316.859 144.938C316.859 118.717 295.603 97.4609 269.382 97.4609C243.161 97.4609 221.904 118.717 221.904 144.938C221.904 171.159 243.161 192.416 269.382 192.416Z" fill="#FFFBFB" stroke="#2E2D30" stroke-width="4"/>
</mask>
<g mask="url(#mask2_1391_371)">
<path d="M247.239 157.474C263.385 157.474 276.475 144.384 276.475 128.237C276.475 112.09 263.385 99.0005 247.239 99.0005C231.092 99.0005 218.002 112.09 218.002 128.237C218.002 144.384 231.092 157.474 247.239 157.474Z" fill="#2E2D30"/>
</g>
<mask id="mask3_1391_371" style="mask-type:luminance" maskUnits="userSpaceOnUse" x="220" y="145" width="99" height="49">
<path d="M220.002 145.978C220.002 152.279 221.282 158.517 223.769 164.338C226.255 170.159 229.9 175.448 234.494 179.904C239.088 184.359 244.543 187.893 250.546 190.304C256.548 192.715 262.982 193.956 269.48 193.956C275.977 193.956 282.411 192.715 288.414 190.304C294.417 187.893 299.871 184.359 304.466 179.904C309.06 175.448 312.704 170.159 315.191 164.338C317.677 158.517 318.957 152.279 318.957 145.978H269.48H220.002Z" fill="white"/>
</mask>
<g mask="url(#mask3_1391_371)">
<path d="M220.002 145.978C220.002 152.279 221.282 158.517 223.769 164.338C226.255 170.159 229.9 175.448 234.494 179.904C239.088 184.359 244.543 187.893 250.546 190.304C256.548 192.715 262.982 193.956 269.48 193.956C275.977 193.956 282.411 192.715 288.414 190.304C294.417 187.893 299.871 184.359 304.466 179.904C309.06 175.448 312.704 170.159 315.191 164.338C317.677 158.517 318.957 152.279 318.957 145.978H269.48H220.002Z" fill="#E7E2DE" stroke="#2E2D30" stroke-width="8"/>
</g>
<path d="M270.094 132.052C271.198 132.052 272.094 131.156 272.094 130.052C272.094 128.947 271.198 128.052 270.094 128.052C268.989 128.052 268.094 128.947 268.094 130.052C268.094 131.156 268.989 132.052 270.094 132.052Z" fill="#FFFBFB"/>
<path d="M263.594 128.052C266.079 128.052 268.094 126.037 268.094 123.552C268.094 121.066 266.079 119.052 263.594 119.052C261.108 119.052 259.094 121.066 259.094 123.552C259.094 126.037 261.108 128.052 263.594 128.052Z" fill="#FFFBFB"/>
<mask id="mask4_1391_371" style="mask-type:alpha" maskUnits="userSpaceOnUse" x="218" y="209" width="73" height="38">
<path d="M288.008 217.17C289.063 223.815 286.893 229.511 282.028 234.014C277.092 238.583 269.307 241.975 259.176 243.585C249.047 245.194 239.701 244.523 232.698 241.786C225.739 239.066 221.252 234.397 220.226 227.937C219.7 224.623 220.426 223.231 221.365 222.475C222.54 221.528 224.674 221.012 228.122 220.856C230.343 220.756 232.83 220.807 235.611 220.863C237.078 220.893 238.628 220.924 240.264 220.936C244.918 220.97 250.085 220.837 255.428 219.988C260.775 219.139 265.524 217.696 269.638 216.266C271.282 215.695 272.786 215.141 274.179 214.628C276.356 213.826 278.263 213.124 280.012 212.61C282.926 211.754 284.593 211.7 285.606 212.183C286.451 212.585 287.456 213.697 288.008 217.17Z" fill="#2E2D30" stroke="#2E2D30" stroke-width="4"/>
</mask>
<g mask="url(#mask4_1391_371)">
<path d="M246.254 253.078C242.712 239.04 257.879 226.039 277.379 219.039C293.879 213.039 311.262 221.742 314.805 235.78C318.347 249.818 299.773 243.918 279.959 248.918C260.144 253.918 249.797 267.116 246.254 253.078Z" fill="#F19C9C"/>
</g>
<path d="M270.254 226.907C270.382 223.567 271.875 221.125 272.605 220.321L264.246 224.432C267.622 223.914 269.658 225.867 270.254 226.907Z" fill="#2E2D30"/>
</svg>
